<?xml version="1.0" standalone="no"?>
<!DOCTYPE svg PUBLIC "-//W3C//DTD SVG 1.1//EN" "http://www.w3.org/Graphics/SVG/1.1/DTD/svg11.dtd" >
<svg xmlns="http://www.w3.org/2000/svg">
<metadata>Generated by IcoMoon</metadata>
<defs>
<font id="DA-brandicons" horiz-adv-x="1024">
<font-face units-per-em="1024" ascent="960" descent="-64" />
<missing-glyph horiz-adv-x="1024" />
<glyph unicode="&#x20;" horiz-adv-x="512" d="" />
<glyph unicode="&#x66;" glyph-name="female" d="M851.304 621.375c0 187.018-151.888 338.625-338.906 338.625-187.017 0-339.702-151.607-339.702-338.625 0-162.753 113.475-298.646 266.819-331.172v-93.519h-153.344v-117.564h153.344v-143.121h138.010v143.121h148.233v117.564h-148.233v92.235c153.344 30.054 273.78 167.431 273.78 332.455zM317.095 621.375c0 104.156 84.442 188.6 188.595 188.6 104.172 0 188.599-84.444 188.599-188.6 0-104.161-84.432-188.59-188.599-188.59-104.16-0.005-188.595 84.429-188.595 188.59z" />
<glyph unicode="&#x6c;" glyph-name="pin" d="M512 960c-158.372 0-286.768-128.531-286.768-287.085 0-158.549 286.768-736.915 286.768-736.915s286.766 578.365 286.766 736.915c0 158.554-128.386 287.085-286.766 287.085zM512 540.105c-70.492 0-127.631 57.209-127.631 127.773 0 70.574 57.137 127.778 127.631 127.778 70.496 0 127.64-57.204 127.64-127.778-0.007-70.569-57.143-127.773-127.64-127.773z" />
<glyph unicode="&#x6d;" glyph-name="male" d="M570.027 760.32h161.626l-102.299-102.299c-129.683 87.178-311.982 75.199-428.672-41.491-132.241-132.243-132.045-346.844 0.198-479.085 132.241-132.241 347.407-133.004 479.65-0.761 115.084 115.084 130.935 291.415 45.503 422.842l98.287 98.287v-150.079h129.707v382.293h-384v-129.707zM578.423 238.787c-73.649-73.649-193.068-73.651-266.716-0.003-73.661 73.66-73.648 193.070 0.002 266.72 73.653 73.653 193.055 73.651 266.711-0.005 73.653-73.649 73.656-193.058 0.003-266.711z" />
<glyph unicode="&#xe600;" glyph-name="clock" d="M510.324 876.373c57.636 0 113.502-11.269 166.047-33.493 50.799-21.485 96.437-52.26 135.648-91.471s69.989-84.849 91.476-135.646c22.224-52.548 33.495-108.418 33.495-166.057 0-57.627-11.271-113.492-33.495-166.035-21.487-50.799-52.263-96.439-91.477-135.653-39.216-39.216-84.854-69.994-135.649-91.482-52.547-22.226-108.413-33.497-166.043-33.497-57.634 0-113.498 11.271-166.045 33.498-50.797 21.489-96.437 52.267-135.651 91.482s-69.99 84.855-91.477 135.653c-22.228 52.543-33.497 108.406-33.497 166.033 0 57.639 11.269 113.51 33.495 166.057 21.485 50.797 52.262 96.433 91.474 135.644s84.85 69.985 135.648 91.471c52.548 22.226 108.416 33.495 166.054 33.495zM510.324 961.707c-282.764 0-512.003-229.216-512.003-512 0-282.735 229.239-512 512.002-512 282.759 0 511.998 229.267 511.998 512 0.002 282.784-229.239 512-511.997 512v0zM766.020 397.831h-307.546v393.209h103.695v-289.514h203.851z" />
<glyph unicode="&#xe601;" glyph-name="calendar" d="M321.394 635.841h161.684v-161.684h-161.684v161.684zM541.186 635.841h161.683v-161.684h-161.683v161.684zM756.763 635.841h161.684v-161.684h-161.684v161.684zM321.394 420.263h161.684v-161.684h-161.684v161.684zM541.186 420.263h161.683v-161.684h-161.683v161.684zM756.763 420.263h161.684v-161.684h-161.684v161.684zM321.394 204.684h161.684v-161.683h-161.684v161.683zM105.527 420.263h161.684v-161.684h-161.684v161.684zM105.527 204.684h161.684v-161.683h-161.684v161.683zM541.186 204.684h161.683v-161.683h-161.683v161.683zM756.763 204.684h161.684v-161.683h-161.684v161.683zM864.551 850v-53.895c0-44.578-63.21-80.841-107.788-80.841s-107.788 37.369-107.788 81.947v53.893l-276.212-1.104v-53.895c0-44.578-60.974-80.841-105.552-80.841s-114.526 36.263-114.526 80.841v53.895h-152.685v-914h1024v914h-159.449zM970.105-10.105h-916.21v700.684h916.21v-700.684zM267.211 960c-29.763 0-53.895-24.105-53.895-53.895v-110c0-29.79 24.132-53.895 53.895-53.895s53.895 24.105 53.895 53.895v110c0 29.79-24.132 53.895-53.895 53.895v0zM756.763 958.896c-29.763 0-53.895-24.105-53.895-53.895v-110.001c0-29.79 24.132-53.895 53.895-53.895s53.895 24.105 53.895 53.895v110c0 29.792-24.132 53.897-53.895 53.897v0z" />
<glyph unicode="&#xe602;" glyph-name="burger" d="M0 908.8h1024v-204.8h-1024v204.8zM0 548.693h1024v-204.8h-1024v204.8zM0 192h1024v-204.8h-1024v204.8z" />
<glyph unicode="&#xe603;" glyph-name="mag" d="M1022.923 56.721l-265.393 266.697c41.69 64.444 65.906 141.249 65.906 223.72 0 227.744-184.571 412.37-412.256 412.37-227.683-0.002-412.256-184.625-412.256-412.37s184.573-412.37 412.257-412.37c83.084 0 160.411 24.607 225.14 66.898l264.861-266.158 121.74 121.213zM210.768 346.67c-53.533 53.547-83.014 124.742-83.014 200.468s29.481 146.92 83.014 200.467c53.533 53.547 124.706 83.036 200.414 83.036 75.704 0 146.879-29.489 200.412-83.036 53.531-53.547 83.014-124.74 83.014-200.467s-29.481-146.922-83.014-200.468c-53.533-53.547-124.706-83.036-200.412-83.036-75.708 0-146.881 29.489-200.414 83.036z" />
<glyph unicode="&#xe604;" glyph-name="download-simple" d="M580.267 896h-128v-435.2h-159.698l0.645-42.866 179.319-162.173 42.187-42.148 41.184 41.204 179.656 162.439 0.299 43.544h-155.592v435.2zM810.667 298.667v-170.667h-599.040v170.667h-128v-213.012c0-46.933 40.96-85.654 87.893-85.654h684.373c46.933 0 82.773 38.721 82.773 85.654v213.012h-128z" />
<glyph unicode="&#xe605;" glyph-name="eye-fill-simple" d="M512 816.611c-379.24 0-512-368.64-512-368.64s139.96-368.64 512-368.64c357.6 0 512 368.64 512 368.64s-154.4 368.64-512 368.64zM512 284.131c-90.481 0-163.84 73.359-163.84 163.84s73.359 163.84 163.84 163.84 163.84-73.359 163.84-163.84-73.359-163.84-163.84-163.84z" />
<glyph unicode="&#xe606;" glyph-name="note-open" d="M256.357 917.333h-51.714l-204.643-204.643v-563.357h818.714l36.572 36.432 168.714 168.576v562.992h-767.643zM224.618 874.667h744.115l-456.764-417.314-368.749 335.456 81.398 81.859zM798.416 189.373l-754.043 0.92v503.11l68.731 69.12 398.927-362.906 467.596 427.206v-455.916l-181.21-181.535z" />
<glyph unicode="&#xe607;" glyph-name="speech-dots-open" d="M256.357 919.040h-51.714l-204.643-204.643v-563.357h257.707v-215.096l269.24 215.096h291.767l36.572 36.432 168.714 168.576v562.992h-767.643zM979.627 372.615l-181.21-181.535-286.682 0.009-214.774-169.716v170.627h-252.587v503.11l180.244 181.263h755.009v-503.759zM295.142 575.92v-111.003l-33.942-34.425h-111.843v113.995l31.433 31.433h114.352zM331.713 612.492h-166.071l-52.857-52.857v-165.716h163.715l55.214 55.999v162.574h-0.002zM584.963 575.92v-111.003l-33.944-34.425h-111.807v114.002l31.404 31.427h114.347zM621.536 612.492h-166.072l-52.821-52.857v-165.716h163.678l55.216 55.999v162.574zM874.784 575.92v-111.003l-33.944-34.425h-111.77v114.009l31.377 31.42h114.336zM911.357 612.492h-166.072l-52.785-52.857v-165.716h163.642l55.216 55.999v162.574z" />
<glyph unicode="&#xe608;" glyph-name="speech-fill" d="M256.357 919.040h-51.714l-204.643-204.643v-563.357h257.707v-215.096l269.24 215.096h291.767l36.572 36.432 168.714 168.576v562.992h-767.643z" />
<glyph unicode="&#xe609;" glyph-name="speech-open" d="M256.357 919.040h-51.714l-204.643-204.643v-563.357h257.707v-215.096l269.24 215.096h291.767l36.572 36.432 168.714 168.576v562.992h-767.643zM979.627 372.615l-181.21-181.535-286.682 0.009-214.774-169.716v170.627h-252.587v503.11l180.244 181.263h755.009v-503.759z" />
<glyph unicode="&#xe60a;" glyph-name="speech-fill-simple" d="M938.667 960h-853.333c-46.933 0-85.333-38.4-85.333-85.333v-640c0-46.933 38.4-85.333 85.333-85.333h496.64v-213.62l273.256 213.62h83.437c46.933 0 85.333 38.4 85.333 85.333v640c0 46.933-38.4 85.333-85.333 85.333z" />
<glyph unicode="&#xe60b;" glyph-name="share-fill" d="M621.273 138.254h-483.133l1.118 396.732h-100.785l-38.443 57.039 228.915 231.315 230.035-230.579-35.635-57.747-102.885-0.626v-217.518l198.27 0.626 104.071-104.426-1.527-74.815zM794.406 132.391l-229.325 230.989 35.567 57.692 102.898 0.655v217.545l-198.202-0.681-100.526 100.171v65.162h479.957v-382.799h100.799l38.456-57.039-229.625-231.697z" />
<glyph unicode="&#xe60c;" glyph-name="share-open" d="M619.566 109.24h-483.133l1.118 396.732h-100.785l-38.443 57.039 228.915 231.315 230.035-230.579-35.635-57.747-102.885-0.626v-217.518l198.27 0.626 104.071-104.426-1.527-74.815zM164.434 137.16h427.786l0.707 35.581-87.465 87.793-214.629-0.71v273.304l115.18 0.71 15.923 25.791-194.616 195.081-193.062-195.081 17.367-25.738h113.925l-1.116-396.73zM792.699 103.378l-229.325 230.989 35.567 57.692 102.898 0.655v217.545l-198.202-0.681-100.526 100.171v65.162h479.957v-382.799h100.799l38.456-57.039-229.625-231.697zM598.68 338.401l193.99-195.379 193.69 195.436-17.355 25.737h-113.857v382.799h-424.119v-25.656l84.111-83.785 214.617 0.708v-273.304l-115.166-0.708-15.911-25.846z" />
<glyph unicode="&#xe60d;" glyph-name="share-fill-simple" d="M513.707 959.947l-41.184-41.185-179.656-162.562-0.299-43.667h154.578v-435.2h128v435.2h160.712l-0.645 42.999-179.319 162.239-42.187 42.175zM855.893 618.667h-217.6v-128h172.373v-426.667h-599.040v426.667h168.96v128h-209.067c-46.933 0-87.893-38.026-87.893-84.96v-512c0-46.933 40.96-85.707 87.893-85.707h684.373c46.933 0 82.773 38.774 82.773 85.707v512c0 46.933-35.84 84.96-82.773 84.96z" />
<glyph unicode="&#xe60e;" glyph-name="mlt-open" d="M375.235-64h-154.068l-220.578 220.72-0.589 154.682 221.051 221.112 507.090 6.159 118.284 118.352 0.049 8.156-117.171 117.272-8.168-0.065-117.222-117.337-0.737-60.406-177.591-2.949 1.555 137.124 221.15 221.179 153.481-0.524 221.018-221.179 1.212-153.141-222.099-222.259-507.189-7.142-117.236-117.337v-8.19l117.106-117.207 8.201 0.032 118.252 118.289 0.492 63.353 176.594 1.638-1.294-138.662-221.592-221.672zM239.5-19.647l117.385-0.067 195.809 195.925 0.688 75.407-87.904-0.817-0.295-37.967-144.034-144.101-44.868-0.065-143.165 143.213 0.099 44.911 142.904 142.985 507.187 7.209 196.219 196.349-0.852 116.454-195.318 195.398-116.796 0.393-195.302-195.366-0.852-73.409 88.999 1.473 0.474 35.377 142.921 143.020 44.867 0.099 143.085-143.217-0.032-44.877-143.969-144.036-507.138-6.158-195.236-195.366 0.427-117.929 194.697-194.842z" />
<glyph unicode="&#xe60f;" glyph-name="mlt-fill" d="M375.235-64h-154.068l-220.578 220.72-0.589 154.682 221.051 221.112 507.090-0.667 118.284 125.179 0.049 8.156-117.171 117.272-8.168-0.065-117.222-117.337-0.737-63.819-177.591 0.464 1.555 137.124 221.15 221.179 153.481-0.524 221.018-221.179 1.212-153.141-222.099-229.086-507.189-0.316-117.236-117.337v-8.19l117.106-117.207 8.201 0.032 118.252 118.289 0.492 63.353 176.594-0.068-1.294-136.955-221.592-221.672z" />
<glyph unicode="&#xe610;" glyph-name="fave-fill" d="M242.476-39.098l-75.312 55.089 46.802 273.703-14.718 45.23-199.248 193.889 29.046 88.709 267.414 38.977 49.053 35.656 119.685 242.942h93.175l119.863-242.727 49.017-35.512 268.093-38.907 28.653-88.922-199.177-194.176-14.433-44.373 47.123-274.345-75.527-54.804-249.981 131.331h-39.373l-250.156-131.76z" />
<glyph unicode="&#xe611;" glyph-name="fave-open" d="M242.476-39.098l-75.312 55.089 46.802 273.703-14.718 45.23-199.248 193.889 29.046 88.709 267.414 38.977 49.053 35.656 119.685 242.942h93.175l119.863-242.727 49.017-35.512 268.093-38.907 28.653-88.922-199.177-194.176-14.433-44.373 47.123-274.345-75.527-54.804-249.981 131.331h-39.373l-250.156-131.76zM218.718 36.929l27.904-20.436 234.295 123.435h62.775l234.293-123.078 27.94 20.294-44.16 256.874 21.651 66.596 186.604 181.849-10.614 32.869-250.481 36.371-67.879 49.232-112.075 226.862h-34.335l-111.824-227.007-67.951-49.374-249.945-36.478-10.754-32.833 186.421-181.42 21.972-67.523-43.836-256.232z" />
<glyph unicode="&#xe612;" glyph-name="star-simple" d="M512 934.941l158.217-320.58 353.783-51.41-256-249.537 60.433-352.355-316.433 166.361-316.433-166.361 60.433 352.355-256 249.537 353.783 51.41z" />
<glyph unicode="&#xe613;" glyph-name="close-kb" d="M0 901.914v-590.626l77.244-77.822h867.207l79.549 77.822v590.626h-1024zM984.648 327.84l-56.245-55.023h-834.773l-54.277 54.683v535.060h945.295v-534.721zM263.243 454.207h498.511v-98.383h-498.511v98.383zM94.268 784.357h98.381v-98.381h-98.381v98.381zM279.19 784.357h98.381v-98.381h-98.381v98.381zM464.116 784.357h98.381v-98.381h-98.381v98.381zM649.039 784.357h98.383v-98.381h-98.383v98.381zM833.963 784.357h98.381v-98.381h-98.381v98.381zM181.156 619.262h98.383v-98.381h-98.383v98.381zM369.386 619.262h98.381v-98.381h-98.381v98.381zM557.577 619.262h98.381v-98.381h-98.381v98.381zM745.807 619.262h98.381v-98.381h-98.381v98.381zM512.807-5.914l306.13 162.633h-612.262z" />
<glyph unicode="&#xe614;" glyph-name="folder" d="M469.122 771.738l-127.997 115.589h-341.125v-878.653h1024v763.064z" />
<glyph unicode="&#xe615;" glyph-name="note-draft" d="M731.43 832h-146.287v-36.572h146.287v36.572zM438.857 832h-146.285v-36.572h146.285v36.572zM163.393 790.714l-103.465-103.429 25.856-25.894 103.465 103.465-25.856 25.858zM36.57 565.786h-36.57v-146.285h36.572v146.285h-0.002zM36.57 273.213h-36.57v-146.287h36.572v146.287h-0.002zM229.608 100.57h-146.287v-36.57h146.287v36.57zM522.18 100.57h-146.287v-36.57h146.287v36.57zM814.751 100.57h-146.287v-36.57h146.287v36.57zM996.931 293.927l-103.431-103.427 25.856-25.858 103.431 103.429-25.856 25.856zM1024 560.142h-36.57v-146.285h36.57v146.285zM1024 832h-146.287v-36.572h109.716v-88.999h36.57v125.571z" />
<glyph unicode="&#xe616;" glyph-name="note-spam" d="M513.369 742.572c-143.751 0-260.294-116.509-260.294-260.33 0-81.48 37.484-154.172 96.13-201.899v-127.107h327.439v126.397c59.143 47.727 97.053 120.704 97.053 202.609 0.002 143.821-116.506 260.33-260.328 260.33zM413.862 331.093c-44.882 0-81.229 36.347-81.229 81.231 0 44.916 36.347 81.299 81.229 81.299 44.918 0 81.335-36.383 81.335-81.299 0-44.884-36.419-81.231-81.335-81.231zM612.913 331.093c-44.882 0-81.3 36.347-81.3 81.231 0 44.916 36.419 81.299 81.3 81.299 44.918 0 81.265-36.383 81.265-81.299 0-44.884-36.347-81.231-81.265-81.231zM302.259 738.376l-118.32 118.32c3.948 28.131-5.369 56.832-25.499 76.96-34.319 34.391-94.28 34.461-128.742 0-17.213-17.213-26.673-40.081-26.673-64.37 0-24.325 9.46-47.194 26.673-64.372 20.128-20.128 49.079-29.553 76.96-25.535l124.899-124.899c18.814 31.758 42.643 60.174 70.702 83.896zM795.926 651.74l124.404 124.404c27.988-3.948 56.868 5.441 76.996 25.535 17.179 17.178 26.673 40.009 26.673 64.336s-9.494 47.229-26.708 64.406c-34.463 34.461-94.423 34.425-128.744 0-20.13-20.128-29.409-48.829-25.463-76.96l-117.221-117.221c27.848-23.97 51.569-52.528 70.062-84.5zM920.364 120.697l-157.513 157.513c-9.53-11.273-19.56-22.193-30.691-32.22v-91.687l110.925-110.923c-3.946-28.133 5.369-56.834 25.499-76.96 17.176-17.213 40.045-26.673 64.37-26.673 24.289 0 47.16 9.46 64.372 26.673s26.673 40.081 26.673 64.37c0 24.327-9.46 47.193-26.673 64.37-20.093 20.093-49.041 29.447-76.962 25.537zM262.18 279.24l-158.58-158.543c-27.776 3.91-56.832-5.443-76.925-25.537-17.215-17.178-26.675-40.044-26.675-64.37 0-24.289 9.46-47.157 26.673-64.37 17.212-17.213 40.045-26.673 64.37-26.673s47.159 9.46 64.372 26.673c20.128 20.163 29.447 48.864 25.499 76.96l112.775 112.773v89.837c-11.452 10.346-21.731 21.586-31.51 33.249z" />
<glyph unicode="&#xe617;" glyph-name="arrow" d="M0 524.232h877.105v-152.527h-877.105v152.527zM457.327 852.142l107.86 107.858 458.813-458.813v-107.793l-457.452-457.393-107.86 107.793 403.524 403.528z" />
<glyph unicode="&#xe618;" glyph-name="folder-add" d="M327.076 850.799l127.997-115.586h532.4v-690.014h-950.944v805.6h290.548zM341.127 887.318h-341.118v-878.636h1023.983v763.052h-554.868l-127.997 115.584zM581.695 664.458v-202.889h202.779v-139.23h-202.779v-201.641h-139.247v201.641h-202.924v139.23h202.924v202.889h139.247z" />
<glyph unicode="&#xe619;" glyph-name="cake" d="M0 7.927h1024v-73.146h-1024v73.146zM195.9 244.924c26.856-17.176 50.596-30.787 97.237-30.787 46.696 0 69.2 13.611 96.096 30.787 29.64 19.004 63.901 40.499 128.614 40.499 64.734 0 98.71-21.497 128.387-40.463 26.929-17.213 48.329-30.824 95.080-30.824s61.23 13.611 88.163 30.824c28.819 18.427 81.882 39.074 116.016 40.25v91.069c0 74.643-15.28 109.266-96.067 109.266h-661.356c-80.785 0.002-119.805-34.621-119.805-109.264v-91.069c71.68-1.215 98.867-21.857 127.633-40.288zM862.751 193.067c-29.713-19-59.947-40.499-124.692-40.499-64.753 0-96.674 21.501-126.391 40.499-26.926 17.176-47.297 30.787-94.046 30.787-46.679 0-67.488-13.611-94.382-30.787-29.66-19-63.075-40.499-127.788-40.499-64.678 0-103.235 21.501-132.878 40.499-25.771 16.466-56.76 29.537-94.307 30.573v-175h877.227v175c-34.133-1.036-56.924-14.073-82.743-30.573zM181.286 738.425h109.715v-219.431h-109.715v219.431zM234.037 761.279c0 0-59.377 30.502-46.857 74.858 13.713 48.572 49.713 19.429 46.857 111.428 0 0.002 118.854-141.141 0-186.286zM457.16 738.425h109.696v-219.431h-109.696v219.431zM509.909 761.279c0 0-59.375 30.502-46.857 74.858 13.715 48.572 49.713 19.429 46.857 111.428 0 0.002 118.878-141.141 0-186.286zM733 738.425h109.716v-219.431h-109.716v219.431zM785.787 761.279c0 0-59.394 30.502-46.86 74.858 13.713 48.572 49.713 19.429 46.86 111.428 0 0.002 118.856-141.141 0-186.286z" />
<glyph unicode="&#xe61a;" glyph-name="llama" d="M832.159 369.917c-26.699 102.675-16.162 277.779-16.162 277.779v182.694h66.154v65.519l-84.058 64.092h-81.838v-64.092h-40.008v64.092h-78.432l-87.327-64.092v-66.55h66.807v-400.026h-333.124l-100.299-101.328-0.911-62.389 51.813-30.107-12.756-95.98 57.518-29.67 2.575-107.349 65.48-66.509h134.484l-25.59 145.338 184.812 1.981 54.588-147.319h101.963l-14.578 196.873c0 0 46.111 41.713 68.529 78.829 22.422 37.158 33.353 91.863 20.361 158.215zM657.864 730.129c-18.063 0-32.799 14.618-32.799 32.72 0 18.062 14.735 32.759 32.799 32.759 18.065 0 32.722-14.696 32.722-32.759 0-18.103-14.657-32.72-32.722-32.72zM723.304 650.271c-17.983 0-32.719 14.655-32.719 32.719 0 18.103 14.735 32.799 32.719 32.799 18.063 0 32.8-14.696 32.8-32.799-0.002-18.063-14.737-32.719-32.8-32.719zM769.729 730.129c-18.063 0-32.719 14.618-32.719 32.72 0 18.062 14.655 32.759 32.719 32.759 18.144 0 32.722-14.696 32.722-32.759 0-18.103-14.578-32.72-32.722-32.72z" />
<glyph unicode="&#xe61b;" glyph-name="watch" d="M505.776 561.473c22.572 38.009 34.502 81.29 34.502 125.164 0 39.421-9.206 77.254-27.358 112.447v0c-42.433 82.323-126.176 133.463-218.551 133.463-135.596 0-245.91-110.316-245.91-245.91s110.312-245.91 245.907-245.91c43.441 0 86.141 11.529 123.482 33.338 36.125 21.098 66.522 51.313 87.91 87.383v0c0.003 0.007 0.007 0.012 0.010 0.019 0.003 0.003 0.005 0.005 0.007 0.007v0zM447.843 595.816c-15.568-26.26-37.685-48.251-63.961-63.599-27.046-15.795-57.999-24.144-89.516-24.144-98.459 0-178.563 80.104-178.563 178.563s80.104 178.563 178.563 178.563c67.055 0 127.862-37.161 158.693-96.98l0.005-0.012c13.181-25.554 19.864-52.997 19.864-81.572 0-31.785-8.67-63.183-25.071-90.795l-0.014-0.026zM462.764 366.937l0.172-0.172-13.158 12.969h-310.863l-138.916-137.295v-279.132h587.093v279.132l-124.329 124.498zM520.533 31.573h-452.267v182.97l98.546 98.63h255.075l98.645-98.63v-182.97zM871.497 488.96l0.063 153.6h-80.085l-35.422-35.176v-118.424h-119.18l-36.127-37.917v-77.435l154.704 0.142 0.118-154.443h80.043l34.789 35.881v117.719h118.991l34.609 36.618v79.435z" />
<glyph unicode="&#xe61c;" glyph-name="frame" d="M877.715 704.285v-512h-731.43v512h731.43zM896 722.57h-768v-548.57h768v548.57zM925.43 814c34.149 0 61.928-26.146 61.928-58.284 0-29.548-6.574-42.334-15.672-60.030-10.585-20.589-23.759-46.213-23.759-93.433 0-47.234 13.172-72.883 23.753-93.491 9.102-17.724 15.677-30.529 15.677-60.080 0-29.662-6.583-42.508-15.693-60.29-10.575-20.637-23.736-46.321-23.736-93.604 0-47.276 13.186-72.974 23.781-93.621 9.127-17.787 15.72-30.636 15.72-60.269 0-32.159-27.749-58.322-61.856-58.322-25.477 0-36.559 5.803-51.896 13.833-18.859 9.876-42.33 22.166-85.745 22.166-43.566 0-67.133-12.505-86.071-22.552-15.341-8.141-26.424-14.020-51.789-14.020-25.313 0-36.383 5.876-51.705 14.010-18.935 10.052-42.501 22.562-86.081 22.562-43.566 0-67.132-12.505-86.069-22.552-15.341-8.141-26.424-14.020-51.787-14.020-25.429 0-36.54 5.885-51.915 14.032-18.956 10.042-42.549 22.54-86.156 22.54-43.639 0-67.164-12.515-86.069-22.571-15.281-8.129-26.322-14.001-51.717-14.001-16.659 0-32.352 6.339-44.184 17.848-11.489 11.177-17.816 25.754-17.816 41.045 0 29.553 6.576 42.358 15.677 60.078 10.581 20.603 23.752 46.244 23.752 93.457 0 47.234-13.17 72.881-23.753 93.489-9.102 17.724-15.676 30.529-15.676 60.081 0 29.662 6.583 42.508 15.693 60.288 10.575 20.637 23.736 46.321 23.736 93.604 0 47.27-13.162 72.945-23.738 93.575-9.11 17.768-15.691 30.607-15.691 60.247 0 32.138 27.766 58.284 61.894 58.284 25.346 0 36.384-5.873 51.663-14.003 18.896-10.054 42.414-22.567 85.98-22.567 43.546 0 67.104 12.503 86.035 22.548 15.34 8.141 26.421 14.022 51.787 14.022 25.341 0 36.417-5.879 51.744-14.015 18.93-10.049 42.489-22.555 86.042-22.555 43.564 0 67.132 12.505 86.069 22.55 15.341 8.139 26.424 14.020 51.789 14.020 25.457 0 36.572-5.888 51.956-14.039 18.951-10.039 42.535-22.533 86.115-22.533 43.667 0 67.2 12.518 86.108 22.577 15.27 8.124 26.305 13.995 51.674 13.995zM925.43 850.57c-69.001 0-68.716-36.57-137.786-36.57-69.001 0-69.001 36.57-138.071 36.57-68.929 0-68.929-36.57-137.856-36.57-68.893 0-68.893 36.57-137.786 36.57-68.929 0-68.929-36.57-137.822-36.57s-68.714 36.57-137.643 36.57c-54.395 0-98.466-42.784-98.466-94.857 0-76.93 39.429-76.93 39.429-153.822 0-76.928-39.429-76.928-39.429-153.892 0-76.786 39.429-76.786 39.429-153.571 0-76.751-39.429-76.751-39.429-153.535 0-52.074 44.179-95.466 98.572-95.466 69.036 0 68.75 36.572 137.786 36.572s69.036-36.572 138.071-36.572c68.929 0 68.929 36.572 137.856 36.572 68.929 0 68.929-36.572 137.786-36.572 68.929 0 68.929 36.572 137.858 36.572 68.857 0 68.714-36 137.641-36 54.359 0 98.429 42.82 98.429 94.894 0 76.926-39.501 77-39.501 153.892 0 76.928 39.431 76.928 39.431 153.894 0 76.786-39.431 76.786-39.431 153.571 0 76.751 39.431 76.679 39.431 153.463 0.002 52.072-44.141 94.857-98.499 94.857v0zM259.857 268.5l117.357 359.571 147.572-196.82 56.786 52.999 127.643-215.75zM792.143 554.75c0-35.75-29-64.715-64.787-64.715-35.75 0-64.642 28.966-64.642 64.715 0 35.714 28.892 64.713 64.642 64.713 35.787 0 64.787-29 64.787-64.713z" />
<glyph unicode="&#xe61d;" glyph-name="frame2" d="M716.505 245.391h-404.977v405.39h404.977v-405.39zM329.17 263.035h369.691v370.104h-369.691v-370.104zM523.302 112.526h-0.481c-38.997 0-55.134 11.626-68.099 20.97-11.097 7.997-19.862 14.314-47.471 14.314-27.583 0-36.282-6.304-47.295-14.285-12.909-9.354-28.976-20.999-67.999-20.999-30.302 0-55.345 11.805-72.424 34.138-14.836 19.401-22.678 45.548-22.678 75.607 0 40.924 10.9 55.368 24.071 68.796 8.11 8.269 13.971 14.242 13.971 44.052 0 29.834-5.862 35.813-13.976 44.088-13.167 13.43-24.066 27.875-24.066 68.794 0 40.982 10.889 55.467 24.044 68.939 8.125 8.32 13.998 14.333 13.998 44.254 0 29.899-5.869 35.903-13.991 44.215-13.158 13.462-24.049 27.938-24.049 68.908 0 66.313 37.289 109.16 94.998 109.16 38.977 0 55.042-11.646 67.951-21.004 11.005-7.979 19.698-14.281 47.206-14.281 27.523 0 36.258 6.31 47.316 14.297 12.943 9.351 29.051 20.987 68.012 20.987h0.483c38.992 0 55.13-11.626 68.096-20.966 11.105-7.999 19.876-14.319 47.507-14.319 25.301 0 29.379 4.634 35.55 11.648 11.378 12.933 23.905 23.637 62.104 23.637 57.687 0 94.962-42.848 94.962-109.16 0-40.924-10.885-55.352-24.035-68.76-8.090-8.248-13.935-14.208-13.935-44.018 0-29.836 5.862-35.814 13.974-44.090 13.167-13.43 24.066-27.875 24.066-68.792 0-40.982-10.889-55.468-24.044-68.939-8.125-8.322-13.996-14.333-13.996-44.254 0-29.901 5.883-35.919 14.025-44.249 13.177-13.481 24.083-27.974 24.083-68.944 0-66.333-37.275-109.194-94.964-109.194-38.043 0-50.558 10.527-61.938 23.243-6.192 6.919-10.281 11.489-35.645 11.489-27.498 0-36.227-6.306-47.28-14.29-12.948-9.353-29.061-20.992-68.050-20.992zM407.25 183.091c38.997 0 55.134-11.626 68.099-20.97 11.097-7.997 19.862-14.314 47.471-14.314h0.481c27.576 0 36.318 6.315 47.387 14.312 12.935 9.344 29.032 20.972 67.942 20.972 38.043 0 50.558-10.527 61.938-23.243 6.192-6.919 10.281-11.489 35.645-11.489 55.376 0 59.68 56.573 59.68 73.912 0 29.925-5.886 35.946-14.032 44.281-13.174 13.476-24.076 27.965-24.076 68.912 0 40.958 10.885 55.438 24.037 68.905 8.129 8.325 14.003 14.339 14.003 44.286 0 29.834-5.862 35.814-13.974 44.088-13.167 13.43-24.066 27.875-24.066 68.792 0 40.899 10.882 55.323 24.028 68.726 8.093 8.252 13.942 14.215 13.942 44.052 0 17.331-4.303 73.876-59.679 73.876-25.353 0-29.435-4.639-35.615-11.662-11.372-12.925-23.89-23.622-62.039-23.622-39.016 0-55.159 11.628-68.13 20.973-11.1 7.996-19.867 14.312-47.473 14.312h-0.483c-27.549 0-36.287-6.313-47.35-14.305-12.94-9.347-29.042-20.978-67.978-20.978-38.951 0-55.011 11.641-67.915 20.997-11.011 7.982-19.707 14.288-47.241 14.288-55.407 0-59.715-56.545-59.715-73.876 0-29.925 5.871-35.932 13.998-44.245 13.155-13.459 24.044-27.93 24.044-68.878 0-40.958-10.887-55.439-24.037-68.907-8.131-8.325-14.005-14.339-14.005-44.286 0-29.836 5.862-35.814 13.976-44.090 13.165-13.43 24.066-27.875 24.066-68.792 0-40.9-10.899-55.339-24.066-68.762-8.113-8.272-13.976-14.249-13.976-44.087 0-17.468 4.314-74.462 59.817-74.462 27.583 0 36.282 6.304 47.295 14.285 12.908 9.354 28.974 20.997 67.997 20.997zM38.455 113.488h-38.455v35.284h37.68c50.528 2.357 91.156 42.061 91.156 73.498 0 29.925-5.886 35.946-14.032 44.281-13.174 13.476-24.078 27.965-24.078 68.912 0 40.958 10.887 55.438 24.037 68.905 8.131 8.325 14.003 14.339 14.003 44.286 0 29.834-5.862 35.814-13.974 44.088-13.167 13.43-24.066 27.875-24.066 68.792 0 40.9 10.883 55.323 24.030 68.727 8.095 8.252 13.942 14.213 13.942 44.052 0 31.316-40.525 70.948-90.945 73.458l-37.562-0.406-0.384 35.282 39.062 0.398c59.057-2.666 125.111-49.732 125.111-108.728 0-40.924-10.885-55.352-24.035-68.76-8.090-8.248-13.935-14.208-13.935-44.018 0-29.836 5.862-35.814 13.974-44.090 13.167-13.43 24.066-27.875 24.066-68.792 0-40.982-10.889-55.468-24.044-68.939-8.125-8.322-13.996-14.333-13.996-44.254 0-29.899 5.883-35.919 14.025-44.249 13.177-13.481 24.083-27.974 24.083-68.944 0-59.165-66.144-106.22-125.285-108.766l-0.379-0.017zM1023.715 112.527l-34.555 0.567c-59.057 2.666-125.111 49.734-125.111 108.73 0 40.924 10.885 55.352 24.037 68.76 8.090 8.247 13.935 14.206 13.935 44.017 0 29.836-5.864 35.814-13.976 44.092-13.165 13.428-24.064 27.873-24.064 68.792 0 40.982 10.889 55.467 24.044 68.939 8.125 8.32 13.996 14.333 13.996 44.254 0 29.899-5.883 35.917-14.027 44.247-13.177 13.481-24.083 27.974-24.083 68.944 0 59.165 66.145 106.22 125.286 108.764l0.758 0.015h34.045v-35.284h-33.647c-50.528-2.355-91.158-42.059-91.158-73.498 0-29.925 5.886-35.946 14.034-44.281 13.174-13.476 24.076-27.964 24.076-68.912 0-40.958-10.885-55.438-24.037-68.907-8.131-8.323-14.003-14.339-14.003-44.286 0-29.836 5.864-35.814 13.976-44.090 13.165-13.43 24.064-27.875 24.064-68.794 0-40.899-10.882-55.322-24.030-68.726-8.093-8.252-13.942-14.213-13.942-44.052 0-31.363 40.648-71.071 91.177-73.472l33.775-0.544-0.57-35.275zM46.896 243.461h-46.896v17.644h29.254v370.104h-29.254v17.642h46.896zM1024 243.461h-42.865v405.39h42.865v-17.642h-25.221v-370.104h25.221z" />
<glyph unicode="&#xe61e;" glyph-name="cog" d="M565.497 900.939l5.601-5.808v-114.555l41.363-13.001c18.014-5.661 36.287-13.31 54.315-22.731l38.468-20.103 81.265 81.309 7.929 0.075 75.662-75.689-0.142-8.059-81.249-81.203 20.195-38.499c9.404-17.927 17.051-36.175 22.728-54.234l13.001-41.363h114.65l5.635-5.54v-107.073l-5.787-5.583h-114.584l-12.974-41.421c-5.588-17.84-13.223-36.057-22.694-54.144l-20.145-38.473 81.329-81.328 0.075-7.912-75.684-75.709-8.047 0.147-81.172 81.217-38.468-20.106c-18.017-9.417-36.292-17.065-54.315-22.731l-41.359-13.003v-115.579l-4.779-4.777h-108.602l-4.779 4.777v115.579l-41.359 13.003c-18.024 5.666-36.299 13.315-54.316 22.731l-38.453 20.103-81.922-81.922h-6.752l-76.781 76.781v6.752l81.922 81.922-20.101 38.456c-9.482 18.14-17.142 36.413-22.769 54.313l-13.001 41.363h-115.523l-4.799 4.794v108.547l4.779 4.779h115.565l12.988 41.39c5.635 17.961 13.293 36.251 22.758 54.362l20.101 38.458-81.9 81.901-0.005 6.752 76.766 76.764h6.75l81.92-81.92 38.456 20.098c18.028 9.421 36.303 17.068 54.315 22.731l41.364 13.001v114.698l5.55 5.663h107.010zM590.599 960.019h-156.928l-39.81-40.617v-95.466c-22.27-7.001-43.578-16.079-63.964-26.732l-68.541 68.541h-55.694l-111.391-111.391 0.038-55.694 68.504-68.504c-10.655-20.384-19.77-41.731-26.771-64.039h-96.657l-39.385-39.385v-157.505l39.424-39.386h96.62c7.001-22.27 16.114-43.578 26.771-63.964l-68.541-68.541v-55.695l111.391-111.389h55.694l68.541 68.541c20.384-10.655 41.694-19.732 63.964-26.733v-96.695l39.386-39.385h157.544l39.386 39.385v96.695c22.27 7.002 43.578 16.079 63.964 26.733l67.35-67.386 57.001-1.039 110.966 111.005-0.538 56.849-67.695 67.693c10.655 20.349 19.77 41.656 26.733 63.889h95.041l40.998 39.578v156.928l-40.54 39.849h-95.468c-7.001 22.27-16.077 43.578-26.771 63.964l67.386 67.348 1 57.003-110.927 110.966-56.887-0.538-67.657-67.695c-20.384 10.653-41.694 19.732-63.964 26.732v95.039l-39.574 41.040zM512.019 191.99c-141.164 0-256.010 114.845-256.010 256.010s114.845 256.010 256.010 256.010 256.010-114.845 256.010-256.010c0-141.165-114.845-256.010-256.010-256.010zM512.019 664.624c-119.446 0-216.624-97.176-216.624-216.624s97.176-216.624 216.624-216.624 216.622 97.178 216.622 216.624-97.176 216.624-216.622 216.624z" />
<glyph unicode="&#xe61f;" glyph-name="staff" d="M829.811 773.944v186.216h-186.225l-18.585-18.747-87.868-167.461-27.628-18.632h-313.61v-255.733h172.407l15.363-18.576-187.769-358.795v-186.216h186.22l18.586 18.735 87.868 167.461 27.628 18.641h313.613v255.737h-172.412l-15.342 18.697z" />
<glyph unicode="&#xe620;" glyph-name="manage" d="M983.46 519.020h-95.464c-7.001 22.27-16.077 43.578-26.771 63.964l67.386 67.347 1 57.001-110.925 110.964-56.924-0.538-67.616-67.693c-20.384 10.655-41.694 19.731-64 26.732v95.039l-39.579 41.039h-156.906l-39.808-40.617v-95.464c-22.27-7.001-43.578-16.077-63.964-26.732l-68.54 68.54h-55.694l-111.387-111.387 0.038-55.694 68.502-68.5c-10.653-20.384-19.77-41.731-26.771-64.039h-96.652l-39.385-39.383v-157.503l39.424-39.383h96.616c7.001-22.27 16.116-43.58 26.771-63.964l-68.54-68.54v-55.694l111.387-111.387h55.694l66.002 66.039v16.536h0.212v108.387l81.251 81.273h206.408l81.231-81.273v-115.193h0.232v-9.771l64.771-64.847 56.999-1.039 111.003 111.003-0.539 56.847-67.693 67.693c10.617 20.347 19.77 41.656 26.694 63.887h95.078l40.999 39.576v156.926l-40.54 39.847zM964.92 347.327l-5.769-5.581h-114.618l-13-41.423c-5.538-17.847-13.153-36.036-22.694-54.117l-20.077-38.501 81.309-81.309 0.077-7.924-75.694-75.694-8.076 0.116-50.54 50.616v96.887l-104.31 104.347h-239.024l-104.329-104.347v-96.887l-0.058-0.077-51.232-51.234h-6.769l-76.771 76.769v6.77l81.925 81.927-20.096 38.424c-9.499 18.154-17.155 36.424-22.77 54.347l-13 41.347h-115.521l-4.808 4.806v108.542l4.77 4.77h115.581l12.979 41.385c5.635 17.961 13.288 36.27 22.77 54.386l20.096 38.424-81.905 81.925v6.731l76.752 76.771h6.769l81.906-81.925 38.482 20.116c18 9.423 36.27 17.039 54.308 22.731l41.349 13v114.693l5.538 5.654h107.020l5.617-5.808v-114.54l41.347-13c18-5.692 36.306-13.309 54.308-22.731l38.461-20.116 81.309 81.309 7.924 0.077 75.617-75.694-0.154-8.038-81.232-81.232 20.227-38.502c9.385-17.923 17-36.154 22.692-54.231l13-41.347h114.697l5.613-5.54v-107.075zM512.048 702.985c-102.965 0-186.735-83.732-186.735-186.696s83.77-186.733 186.735-186.733c65.442 0 126.944 35.116 160.481 91.653 17.155 28.809 26.233 61.694 26.233 95.078 0 29.962-7.002 58.694-20.809 85.386-32.193 62.466-95.77 101.311-165.905 101.311zM638.684 441.366v-0.039c-26.499-44.653-74.999-72.387-126.635-72.387-81.251 0-147.35 66.116-147.35 147.348s66.097 147.311 147.35 147.311c55.364 0 105.52-30.653 130.905-79.964v-0.038c10.885-21.040 16.423-43.694 16.423-67.309 0-26.307-7.154-52.193-20.693-74.923z" />
<glyph unicode="&#xe621;" glyph-name="userCard" d="M949.082 756.937c20.652 0 37.458-16.807 37.458-37.46v-542.954c0-20.654-16.807-37.46-37.458-37.46h-874.163c-20.652 0-37.46 16.807-37.46 37.46v542.952c0 20.654 16.807 37.46 37.46 37.46h874.163zM949.082 794.397h-874.163c-41.199 0-74.919-33.722-74.919-74.921v-542.954c0-41.199 33.72-74.919 74.919-74.919h874.163c41.197 0 74.918 33.722 74.918 74.919v542.954c0 41.199-33.722 74.921-74.918 74.921v0zM370.128 652.16v-156.57h-157.138v156.57h157.138zM401.446 683.477h-219.773v-219.203h219.773v219.203zM146.207 389.531h289.422v-36.463h-289.422v36.463zM146.207 281.283h289.422v-36.463h-289.422v36.463zM911.36 597.019v86.501h-86.837l-8.619-8.905-40.593-77.696-12.89-8.972h-144.608v-117.76h79.375l7.122-8.602-82.203-157.431-4.294-8.414v-86.673h85.714l8.687 8.904 40.525 77.677 12.817 8.992h145.804v117.76h-80.57l-6.979 8.706 82.659 157.379z" />
<glyph unicode="&#xe623;" glyph-name="header-shop" horiz-adv-x="1152" d="M965.688 720.672v-545.156h-779.373v545.156h779.373zM985.172 740.158h-818.344v-584.125h818.344v584.125zM1016.529 838.002c36.382 0 65.99-27.857 65.99-62.107 0-31.491-7.002-45.117-16.707-63.973-11.264-21.939-25.309-49.245-25.309-99.555 0-50.331 14.045-77.654 25.309-99.63 9.705-18.876 16.707-32.519 16.707-64.011 0-31.624-7.002-45.287-16.707-64.238-11.304-21.997-25.309-49.358-25.309-99.746s14.045-77.751 25.347-99.748c9.704-18.951 16.745-32.651 16.745-64.238 0-34.25-29.571-62.145-65.913-62.145-27.132 0-38.97 6.166-55.295 14.728-20.093 10.542-45.098 23.631-91.372 23.631-46.428 0-71.547-13.319-91.717-24.012-16.326-8.677-28.161-14.957-55.182-14.957-26.982 0-38.779 6.279-55.105 14.918-20.17 10.731-45.285 24.052-91.697 24.052-46.43 0-71.527-13.319-91.717-24.012-16.346-8.677-28.161-14.957-55.182-14.957-27.095 0-38.932 6.279-55.316 14.957-20.207 10.693-45.344 24.012-91.809 24.012-46.504 0-71.565-13.319-91.717-24.052-16.289-8.677-28.047-14.918-55.105-14.918-35.811 0-66.066 28.733-66.066 62.755 0 31.512 7.003 45.134 16.709 64.011 11.283 21.957 25.307 49.283 25.307 99.594 0 50.348-14.025 77.671-25.307 99.629-9.705 18.876-16.709 32.539-16.709 64.011 0 31.605 7.021 45.287 16.725 64.238 11.264 21.997 25.289 49.358 25.289 99.746 0 50.369-14.025 77.73-25.289 99.707-9.704 18.933-16.725 32.613-16.725 64.2 0 34.25 29.59 62.107 65.954 62.107 27 0 38.758-6.259 55.050-14.918 20.129-10.713 45.191-24.052 91.621-24.052 46.409 0 71.508 13.319 91.676 24.033 16.346 8.677 28.143 14.936 55.182 14.936 27.002 0 38.799-6.259 55.143-14.936 20.17-10.713 45.267-24.033 91.676-24.033s71.527 13.319 91.697 24.033c16.326 8.677 28.161 14.936 55.182 14.936 27.134 0 38.97-6.279 55.371-14.956 20.171-10.693 45.325-24.014 91.755-24.014 46.542 0 71.621 13.339 91.751 24.052 16.29 8.66 28.051 14.921 55.069 14.921zM1016.529 876.97c-73.525 0-73.221-38.97-146.819-38.97-73.526 0-73.526 38.97-147.126 38.97-73.448 0-73.448-38.97-146.879-38.97-73.409 0-73.409 38.97-146.821 38.97-73.45 0-73.45-38.97-146.859-38.97-73.411 0-73.222 38.97-146.667 38.97-57.963 0-104.923-45.593-104.923-101.079 0-81.974 42.016-81.974 42.016-163.908 0-81.974-42.016-81.974-42.016-163.983 0-81.82 42.016-81.82 42.016-163.641 0-81.786-42.016-81.786-42.016-163.606 0-55.486 47.076-101.725 105.036-101.725 73.562 0 73.258 38.97 146.821 38.97s73.562-38.97 147.125-38.97c73.45 0 73.45 38.97 146.897 38.97 73.43 0 73.43-38.97 146.803-38.97 73.45 0 73.45 38.97 146.897 38.97 73.373 0 73.221-38.36 146.667-38.36 57.923 0 104.883 45.629 104.883 101.115 0 81.974-42.090 82.049-42.090 163.986 0 81.974 42.016 81.974 42.016 163.983 0 81.82-42.016 81.82-42.016 163.642 0 81.784 42.016 81.708 42.016 163.528 0.002 55.484-47.037 101.077-104.959 101.077v0z" />
<glyph unicode="&#xe625;" glyph-name="menu" d="M858.273 730.149v-76.951h-692.544v76.951h692.544zM896.747 768.623h-769.494v-153.898h769.494v153.898zM858.273 485.192v-76.951h-692.544v76.951h692.544zM896.747 523.666h-769.494v-153.898h769.494v153.898zM858.273 242.801v-76.951h-692.544v76.951h692.544zM896.747 281.276h-769.494v-153.898h769.494v153.898z" />
<glyph unicode="&#xe626;" glyph-name="submit" d="M558.471-63.991h-167.98l0.072 390.566-390.562-0.072v161.731l76.694 81.159h313.796l0.072 313.532 76.501 77.068h167.943l-0.143-390.601h389.137v-166.318l-76.964-76.498h-312.173v-313.564l-76.392-77.001zM427.063-27.421h116.193l55.035 55.501v335.065h333.674l55.463 55.141v114.534h-389.137l0.143 390.6h-116.159l-55.142-55.571v-335.031h-334.689l-55.873-59.124v-110.624l390.566 0.073-0.073-390.564z" />
<glyph unicode="&#xe627;" glyph-name="submit-fill" d="M558.471-63.991h-167.98l0.072 390.566-390.562-0.072v161.731l76.694 81.159h313.796l0.072 313.532 76.501 77.068h167.943l-0.143-390.601h389.137v-166.318l-76.964-76.498h-312.173v-313.564l-76.392-77.001z" />
<glyph unicode="&#xe628;" glyph-name="notifications" d="M256.903 936.107h-51.715l-36.572-37.105-168.615-168.605v-562.29h257.707v-207.367l0.864 1.123 268.909 206.244h291.772l36.574 36.033 168.175 168.178v563.789h-767.097zM988.16 387.461l-184.052-183.514h-290.401v-1.345l-0.582 1-217.871-163.946v164.291h-257.707v511.307l182.786 183.306h767.828v-511.099zM186.027 615.253h146.773v-146.773h-146.773v146.773zM440.32 615.253h145.067v-146.773h-145.067v146.773zM692.907 615.253h146.773v-146.773h-146.773v146.773z" />
<glyph unicode="&#xe629;" glyph-name="watch-fill" horiz-adv-x="1360" d="M1323.901 364.044v50.548l-96.113 62.408h-438.085l-47.96-40.891h-97.504l-50.276 39.87-438.037 1.022-99.306-67.366v-45.082l-47.317-0.096v-147.169l47.318-0.448v-178.981l98.874-98.858h384.341l101.687 98.858v233.973h100.25v-235.349l97.485-97.485h385.717l98.924 98.86v178.5l48.083 0.486v147.2h-48.086zM886.009 36.484l-46.742 52.946v236.725l48.086 50.742h292.928l47.511-45.178v-240.911l-49.943-54.263-291.841-0.059zM204.001 36.484l-47.974 50.227v242.195l47.783 47.994h290.629l49.588-46.551v-242.291l-44.506-51.569h-295.52z" />
<glyph unicode="&#xe62a;" glyph-name="rocket-fill" d="M90.936 25.335c-37.419 107.395 53.407 215.697 53.407 215.697s-154.965-20.050-142.020-304.312c275.449-12.906 295.137 151.156 295.137 151.156s-106.090-103.948-206.524-62.541zM1021.017 958.572c-396.005 30.964-693.065-451.734-693.065-451.734h-185.602l-80.456-123.747 142.275-43.327-30.928-80.42 148.511-148.512 80.456 30.928 43.329-142.314 123.711 80.457v185.641c0 0 482.736 297.023 451.77 693.028zM830.665 635.443c-36.693-36.692-96.157-36.692-132.813-0.036-36.729 36.729-36.692 96.155 0 132.847 36.657 36.693 96.118 36.729 132.85 0 36.654-36.657 36.654-96.119-0.038-132.811z" />
<glyph unicode="&#xe62b;" glyph-name="tag" d="M473.529 710.653l-468.37-468.4 16.725-284.384 284.384-16.71 468.383 468.368-301.124 301.126zM202.154 51.891c-11.923-11.923-27.538-17.884-43.153-17.884s-31.224 5.962-43.139 17.884c-23.818 23.846-23.832 62.443 0 86.26 11.923 11.909 27.536 17.868 43.146 17.868s31.221-5.958 43.146-17.868c23.819-23.817 23.819-62.414 0-86.26z" />
<glyph unicode="&#xe62c;" glyph-name="menu-fill" d="M6.115 501.347h122.99v-122.99h-122.99v122.99zM6.115 289.75h122.99v-122.988h-122.99v122.988zM6.115 70.526h122.99v-122.99h-122.99v122.99zM222.277 501.347h553.334v-122.99h-553.334v122.99zM222.277 289.75h553.334v-122.988h-553.334v122.988zM222.277 70.526h553.334v-122.99h-553.334v122.99z" />
<glyph unicode="&#xe62d;" glyph-name="dd" d="M941.74 820.176c-54.74 54.762-126.543 82.164-198.34 82.164-71.779 0-143.549-27.373-198.32-82.164l-33.084-33.062-33.019 33.063c-54.84 54.798-126.659 82.195-198.463 82.195-71.803 0-143.59-27.399-198.366-82.196-109.51-109.595-109.553-287.148 0-396.744l33.062-33.021 396.786-396.788 429.744 429.722c109.723 109.682 109.638 287.321 0 396.831z" />
<glyph unicode="&#xe62e;" glyph-name="add-to-folder" d="M467.581 453.808l159.503 24.383 71.562 152.685h42.204v136.419h-401.464l-92.592 83.647h-246.794v-709.538h533.553l11.866 73.006-115.569 118.274zM922.32 245.753l101.68 104.207-14.643 47.686-136.851 20.92-25.033 19.046-61.175 130.248h-47.613l-61.102-130.394-25.032-19.116-136.528-20.92-14.824-47.577 101.717-104.062 7.538-24.276-23.914-146.915 38.451-29.541 127.761 70.735h20.053l127.618-70.482 38.596 29.396-24.096 147.203z" />
<glyph unicode="&#xe62f;" glyph-name="mention" d="M696.905 351.304c-9.955-56.916 11.363-76.826 56.876-76.826 100.98 0 177.765 96.736 177.765 265.974 0 206.244-162.118 339.907-385.418 339.907-267.382 0-450.84-194.821-450.84-457.941 0-302.94 238.927-406.774 452.268-406.774 126.582 0 227.562 28.436 308.632 65.403v-81.070c-71.113-34.109-183.477-63.976-308.632-63.976-275.91 0-540.457 145.046-540.457 486.417 0 297.23 216.178 537.583 539.028 537.583 280.194 0 470.772-180.622 470.772-419.548 0-231.825-136.518-342.76-277.338-342.76-66.85 0-122.319 29.865-142.228 82.499-28.438-46.961-88.17-81.070-145.065-81.070-119.463 0-187.74 92.413-187.74 210.487 0 155.040 105.243 300.085 258.855 300.085 63.995 0 109.507-32.722 129.418-65.403l9.953 52.593h95.29l-61.14-345.578zM634.319 546.125c-15.647 42.677-54.040 75.399-105.243 75.399-102.409 0-166.403-105.264-166.403-207.672 0-75.356 41.248-126.561 109.508-126.561 58.322 0 99.553 36.965 129.418 82.499l32.72 176.336z" />
<glyph unicode="&#xe630;" glyph-name="reply" d="M324.529 787.487l-324.529-337.406 323.905-341.567 66.973 74.296 1.104 141.897h158.235l0.442-0.331 278.972-151.095 192.642 100.866 1.727 75.839-411.189 220.535h-221.933v139.174l-66.348 77.792z" />
<glyph unicode="&#xe631;" glyph-name="nav-arrow" d="M380.32-64l-68.509 44.378 303.116 467.622-303.116 467.622 68.509 44.378 331.868-512z" />
<glyph unicode="&#xe632;" glyph-name="nav-close" d="M848.005 726.476l-57.506 57.504-278.494-278.487-278.508 278.496-57.506-57.506 278.508-278.494-278.508-278.487 57.506-57.504 278.508 278.485 278.494-278.485 57.506 57.504-278.508 278.487z" />
<glyph unicode="&#xe633;" glyph-name="dd-heart" d="M280.515 858.691c63.273 0 122.788-24.651 167.554-69.383l63.899-63.98 64.010 63.968c44.711 44.73 104.172 69.364 167.424 69.364 63.266 0 122.732-24.634 167.468-69.386 44.774-44.723 69.439-104.192 69.448-167.45 0.009-63.28-24.66-122.793-69.466-167.581l-398.853-398.838-398.954 398.909c-44.732 44.751-69.364 104.231-69.361 167.487 0.005 63.252 24.639 122.737 69.361 167.492 44.733 44.751 104.207 69.396 167.47 69.396zM280.515 902.373c-71.803 0-143.59-27.399-198.366-82.196-109.51-109.595-109.553-287.148 0-396.745l33.062-33.019 396.788-396.786 429.744 429.722c109.723 109.681 109.638 287.319 0 396.829-54.74 54.762-126.543 82.166-198.34 82.166-71.779 0-143.549-27.373-198.318-82.166l-33.085-33.062-33.021 33.062c-54.84 54.799-126.659 82.196-198.463 82.196v0z" />
<glyph unicode="&#xe634;" glyph-name="note-header" d="M511.983 460.38l502.767 462.287h-810.107l-94.089-94.107zM512.019 410.737l-427.339 391.931-84.68-84.68v-563.321h818.715l205.285 205.285v521.573z" />
<glyph unicode="&#xe635;" glyph-name="speech-header" d="M289.941 857.248h-44.92l-177.759-177.761v-489.345h223.7v-179.187l234.002 179.187h253.451l178.316 178.316v488.789h-666.791zM355.866 451.848h-127.067v127.065h127.067v-127.065zM575.843 451.848h-127.067v127.065h127.067v-127.065zM795.855 451.848h-127.067v127.065h127.067v-127.065z" />
<glyph unicode="&#xe636;" glyph-name="cart" d="M945.058 703.154c0.046-79.469 0.077-160.652-0.015-241.103-13.536-1.589-26.957-3.243-40.127-4.864-13.565-1.671-27.136-3.343-40.716-4.931-18.748-2.193-37.511-4.303-56.271-6.41-17.746-1.995-35.494-3.992-53.234-6.055-20.823-2.427-41.636-4.932-62.445-7.433-15.712-1.893-31.43-3.782-47.142-5.639-16.587-1.952-33.176-3.867-49.768-5.784-13.698-1.582-27.404-3.159-41.107-4.762-16.57-1.942-33.142-3.903-49.708-5.866-20.884-2.471-41.767-4.943-62.648-7.376-16.044-1.865-32.099-3.688-48.15-5.511-14.582-1.659-29.162-3.313-43.791-5.009-5.204-0.604-9.68-1.365-14.008-2.099-1.644-0.278-3.407-0.58-5.345-0.889l-2.828-0.449c-22.354 105.009-44.931 210.487-67.144 314.165l283.056-0.002c133.813-0.003 267.593 0.002 401.393 0.015zM0 860.831v-78.044c0 0 140.389-0.394 162.038-0.394 0.983-2.946 2.039-5.327 2.575-7.825 35.121-163.879 70.255-327.757 105.033-491.713 1.155-5.434-0.070-12.256-2.43-17.401-9.279-20.258-29.15-60.169-29.15-60.169l0.591-55.166c0 0 37.769 0 38.105 0.010 3.282 0.079 6.566 0.099 9.849 0.099 5.589 0 11.18-0.067 16.771-0.067-42.032-7.12-70.013-41.472-68.873-80.539 1.306-44.74 34.193-76.237 77.546-77.068 0.505-0.010 1.012-0.015 1.517-0.015 38.1 0 74.865 27.433 77.58 75.433 2.034 35.951-22.349 73.786-68.898 81.635 178.21 0 356.429 0 536.509 0-48.2-7.673-76.861-47.913-69.876-93.083 5.245-33.818 39.217-64.119 76.411-64.119 0.102 0 0.215 0 0.317 0 38.591 0.176 75.703 27.322 78.662 74.953 1.253 20.231-4.946 38.661-18.697 54.364-13.5 15.425-30.1 24.6-50.41 27.744 9.667 0.708 66.543 0.759 66.543 0.759v78.599c0 0-519.305 0.010-591.56 0.010-3.847 0-7.692 0-14.534 0 20.014 26.875 17.521 54.252 7.354 82.676 6.523 1.038 11.283 1.978 16.090 2.538 30.636 3.548 61.297 6.955 91.93 10.52 37.48 4.366 74.948 8.854 112.423 13.247 30.31 3.548 60.631 6.98 90.936 10.556 36.49 4.309 72.958 8.803 109.471 13.056 36.5 4.248 73.040 8.204 109.541 12.472 36.823 4.304 73.58 9.219 110.445 13.109 24.593 2.598 40.049 17.772 40.084 42.392 0.171 103.38 0.104 206.761 0.036 310.142-0.010 13.099-4.453 24.311-14.778 33.022-9.462 7.982-20.54 9.498-32.278 9.498-144.406-0.019-288.794-0.024-433.207-0.024-96.263 0-192.55 0.002-288.809 0.002-4.135 0-8.276 0-11.293 0-4.239 17.993-7.417 34.415-12.056 50.41-5.28 18.193-18.773 28.109-37.265 28.336-25.711 0.307-194.246 0.046-194.246 0.046z" />
<glyph unicode="&#xe637;" glyph-name="arrow-down" d="M916.142 694.673l107.858-107.86-458.813-458.813h-107.793l-457.393 457.452 107.793 107.86 403.528-403.524z" />
<glyph unicode="&#xe638;" glyph-name="peace" d="M511.991 938.658c-282.743 0-511.991-229.214-511.991-511.991 0-282.743 229.248-511.991 511.991-511.991 282.725 0 512.009 229.248 512.009 511.991 0 282.778-229.284 511.991-512.009 511.991zM946.959 426.667c0-98.48-34.906-189.126-89.868-262.434l-316.078 314.194v385.138c220.16-18.72 405.946-207.346 405.946-436.898zM469.333-10.231c-110.933 8.545-195.098 52.458-265.544 119.576l265.544 265.542v-385.118zM541.013 374.854l265.508-265.508c-70.444-67.12-154.575-111.032-265.508-119.578v385.085zM469.333 863.565v-385.12l-311.18-314.175c-54.961 73.271-89.446 163.953-89.446 262.397 0 229.571 180.466 418.196 400.626 436.898z" />
<glyph unicode="&#xe639;" glyph-name="art-square" d="M171.804 84.836h680.391v683.662h-680.391v-683.662zM194.703 745.6h636.231v-639.502h-636.231v639.502zM977.312 167.577c-11.097 21.631-20.708 40.313-20.708 80.006 0 39.725 9.568 58.398 20.647 80.021 11.885 23.191 25.353 49.474 25.353 99.522 0 49.948-13.47 76.183-25.356 99.327-11.077 21.573-20.644 40.205-20.644 79.838 0 39.603 9.563 57.593 20.634 79.131 11.552 22.476 24.603 47.092 25.33 94.523h0.12c0 1.636-0.037 3.855-0.093 5.467-0.187 34.608-14.187 66.409-36.923 89.875-24.040 25.716-57.769 41.89-95.067 41.89-0.852 0-1.398 0.064-2.239 0.056-0.576 0.007-1.451 0.098-1.451 0.098v-0.036c-47.431-0.741-72.957-13.794-95.472-25.351-21.642-11.107-40.47-20.696-80.201-20.696-39.723 0-58.466 9.57-80.088 20.649-23.186 11.882-49.5 25.35-99.536 25.35-49.948 0-76.199-13.47-99.347-25.355-21.571-11.077-40.212-20.644-79.846-20.644-39.61 0-57.645 9.555-79.187 20.618-22.464 11.54-47.086 24.573-94.518 25.306v0.16c-3.271 0-4.939-0.056-7.108-0.155-33.421-0.6-64.138-14.079-87.11-35.827-26.362-24.087-42.986-58.22-42.986-96.018 0-0.87-0.057-2.242-0.051-3.097-0.005-0.587-0.092-2.288-0.092-2.288h0.036c0.754-47.431 13.781-72.123 25.316-94.625 11.079-21.61 20.647-40.008 20.647-79.708 0-39.723-9.57-58.265-20.649-79.887-11.884-23.191-25.351-49.409-25.351-99.458 0-49.944 13.47-76.148 25.355-99.295 11.077-21.571 20.645-40.184 20.645-79.821 0-39.607-9.566-58.431-20.641-79.995-11.554-22.499-24.603-47.974-25.323-95.405h-0.1c0-1.636 1.659-2.285 1.659-3.634 0-0.026 0-0.047 0-0.076 0-34.49 12.934-65.929 35.382-89.471 24.085-26.202 57.743-42.57 95.443-42.57 0.873 0 2.009 0.013 2.867 0.021 0.592-0.007 0.424-0.021 2.059-0.021v0.036c47.431 0.759 72.141 13.808 94.652 25.359 21.631 11.1 40.068 20.687 79.768 20.687 39.723 0 58.275-9.566 79.897-20.645 23.193-11.885 49.414-25.355 99.463-25.355 49.95 0 76.151 13.472 99.295 25.357 21.575 11.077 40.192 20.642 79.828 20.642 39.607 0 58.398-9.554 79.937-20.618 22.479-11.542 47.925-24.584 95.356-25.304v-0.16c1.636 0 4.22 0.056 6.411 0.157 32.667 0.628 62.365 13.558 85.122 34.479 27.229 24.162 44.289 58.882 44.289 97.407 0 50.032-13.521 76.331-25.426 99.533zM929.258 1.831c-15.358-13.308-35.353-21.804-57.355-23.004-0.419-0.007-0.836-0.034-1.257-0.034-39.638 0-58.247 9.558-79.798 20.626-23.119 11.873-49.321 25.332-99.244 25.332-49.948 0-76.185-13.47-99.329-25.356-21.573-11.076-40.204-20.644-79.838-20.644-39.754 0-58.435 9.575-80.064 20.655-23.184 11.879-49.46 25.345-99.476 25.345-50.009 0-76.297-13.493-99.492-25.395-21.018-10.788-39.255-20.142-76.696-20.662-26.707 0.28-50.759 11.26-67.666 28.657-14.89 16.162-24.276 37.885-24.991 61.868 0.188 38.823 9.671 57.306 20.639 78.662 11.882 23.137 25.353 49.363 25.353 99.286 0 49.948-13.472 76.183-25.356 99.327-11.077 21.571-20.644 40.202-20.644 79.838 0 39.754 9.573 58.435 20.657 80.067 11.879 23.182 25.343 49.458 25.343 99.476 0 49.997-13.466 76.264-25.346 99.437-10.772 21.010-20.113 39.244-20.629 76.72 0.278 26.76 11.334 50.86 28.841 67.748 15.615 14.298 36.383 23.496 59.354 24.732 0.373 0.005 0.739 0.031 1.114 0.031 39.638 0 58.248-9.559 79.798-20.627 23.119-11.874 49.321-25.332 99.246-25.332 49.95 0 76.181 13.47 99.327 25.355 21.573 11.077 40.204 20.644 79.837 20.644 39.742 0 58.417-9.571 80.043-20.654 23.184-11.88 49.458-25.346 99.48-25.346 50.041 0 76.335 13.495 99.536 25.403 21.030 10.793 39.272 20.15 76.752 20.655 26.529-0.276 50.429-11.142 67.302-28.37 14.9-16.037 24.362-37.617 25.239-61.474-0.088-39.262-9.614-57.807-20.639-79.254-11.885-23.12-25.357-49.323-25.357-99.252 0-49.95 13.472-76.183 25.357-99.329 11.076-21.573 20.642-40.204 20.642-79.838 0-39.754-9.573-58.433-20.655-80.065-11.879-23.184-25.345-49.458-25.345-99.478 0-50.002 13.491-76.292 25.392-99.486 10.697-20.844 19.978-38.955 20.647-75.762 0-28.105-11.915-53.337-30.717-70.501z" />
<glyph unicode="&#xe63a;" glyph-name="lit" d="M141.193 853.335h-37.37v-853.332h608.477l207.877 207.61v645.725h-778.985zM883.2 222.971l-186.265-185.991h-556.135v779.377h742.4v-593.386zM217.6 667.022h130.845v-36.977h-130.845v36.977zM416.71 667.022h392.532v-36.977h-392.532v36.977zM217.6 519.112h228.977v-36.977h-228.977v36.977zM513.423 519.112h295.823v-36.977h-295.823v36.977zM217.6 371.199h130.845v-36.977h-130.845v36.977zM416.71 371.199h392.532v-36.977h-392.532v36.977zM217.6 223.29h228.977v-36.977h-228.977v36.977zM513.423 223.29h184.89v-36.977h-184.89v36.977z" />
<glyph unicode="&#xe63b;" glyph-name="bullhorn" horiz-adv-x="1195" d="M853.218 652.972v210.159l-333.445-195.503-342.592-0.268c-62.169-10.186-179.763-64.289-179.763-196.181 0-129.403 93.582-174.554 134.392-188.096l-2.27-31.403 150.513-219.541c8.662-15.556 32.37-41.941 66.306-41.941 14.385 0 28.892 4.649 43.625 14.201l82.956 57.415c2.861 1.439 28.153 14.733 35.87 40.542 3.046 10.208 4.381 26.612-6.462 45.254-14.365 24.611-59.743 91.663-87.525 133.662h84.375l354.024-201.393v180.070c51.999 11.675 91.998 58.316 91.998 113.963v165.045c0 55.666-39.998 102.329-91.998 114.005zM811.219 152.243l-300.914 171.036h-175.129l22.472-33.165c0.883-1.315 88.264-129.604 108.268-163.928 3.518-6.009 3.108-9.527 2.511-11.623-1.915-6.668-10.598-13.037-16.876-16.493l-84.992-58.581c-7.285-4.731-14.097-7.127-20.21-7.127-17.575 0-29.428 20.208-30.5 21.935l-143.231 209.079 3.704 52.766-18.602 3.376c-4.813 0.863-118.186 22.856-118.186 151.56 0 128.786 138.557 154.195 141.006 154.195h350.588l280.089 164.271v-637.296zM901.216 373.922c0-32.201-20.001-59.713-47.998-70.162v305.414c27.997-10.454 47.998-37.972 47.998-70.204v-165.045zM1071.21 477.271h125.994v-41.999h-125.994v41.999zM1119.255 730.479l20.66-36.712-110.464-62.159-20.66 36.712 110.464 62.159zM1013.529 249.626l111.458-60.419 20.088 37.039-111.46 60.419z" />
<glyph unicode="&#xe63c;" glyph-name="journal" d="M869.213 874.668h-713.339c-50.445 0-91.873-41.371-91.873-91.817v-713.36c0-50.447 41.427-90.823 91.873-90.823h713.339c50.49 0 90.788 40.376 90.788 90.821v713.361c0 50.445-40.297 91.817-90.788 91.817zM915.2 782.851v-648.877h-722.773v695.893h676.786c25.682 0 45.987-21.358 45.987-47.016zM155.872 829.867h14.154v-695.893h-13.585c-19.894 0-35.694-3.095-47.641-8.666v657.543c0 25.658 21.434 47.016 47.072 47.016zM869.213 23.467h-713.339c-25.637 0-47.072 20.381-47.072 46.022v29.716c10.453 7.298 24.874 12.369 47.641 12.369h758.759v-42.085c0-25.639-20.305-46.022-45.987-46.022zM795.734 487.893v228.48h-477.866v-228.48h477.866zM340.267 693.973h433.067v-183.679h-433.067v183.679z" />
<glyph unicode="&#xe63d;" glyph-name="poll" d="M934.352 24.642h-844.704v804.047h39.184v-764.866h805.52zM227.937 475.3h117.47v-353.238h-117.47v353.238zM424.92 716.326h117.452v-594.262h-117.452v594.262zM619.437 592.255h117.47v-470.189h-117.47v470.189zM815.809 276.193h117.47v-154.128h-117.47v154.128z" />
<glyph unicode="&#xe800;" glyph-name="preview" d="M495.088 609.243c90.81 0 164.718-73.908 164.718-164.734s-73.908-164.734-164.718-164.734c-90.826 0-164.734 73.906-164.734 164.734s73.908 164.734 164.734 164.734zM495.088 639.401c-107.656 0-194.895-87.306-194.895-194.895s87.242-194.895 194.895-194.895c107.64 0 194.879 87.306 194.879 194.895s-87.242 194.895-194.879 194.895v0zM802.354 88.497l-210.165 210.133 45.97 45.97 210.165-210.133zM636.187 85.321h-465.527v682.688h682.672v-464.903h-32.506v432.396h-617.66v-617.676h433.014z" />
<glyph unicode="&#xe801;" glyph-name="deviants" d="M511.988 415.041c-144.365 0-261.791 117.448-261.791 261.813 0.002 144.365 117.425 261.813 261.791 261.813s261.835-117.448 261.835-261.811c0-144.365-117.47-261.815-261.835-261.815zM511.988 853.247c-97.242 0-176.369-79.126-176.369-176.391s79.126-176.393 176.369-176.393c97.265 0 176.369 79.126 176.369 176.393 0 97.263-79.104 176.391-176.369 176.391zM822.504-85.333h-621.008v298.994l146.734 146.78h327.492l146.782-146.78v-298.994zM286.916 0.133h450.118v178.133l-96.707 96.708h-256.703l-96.708-96.708v-178.133z" />
<glyph unicode="&#xe802;" glyph-name="empty" d="M512-85.333c-282.32 0-512 229.7-512 512 0 282.324 229.68 512 512 512 282.3 0 512-229.676 512-512 0-282.3-229.7-512-512-512zM512 844.507c-230.39 0-417.838-187.448-417.838-417.84 0-230.39 187.448-417.84 417.838-417.84s417.84 187.45 417.84 417.84c0 230.391-187.45 417.84-417.84 417.84z" />
<glyph unicode="&#xe803;" glyph-name="partial" d="M512-85.333c-282.322 0-512 229.702-512 512 0 282.322 229.678 512 512 512 282.298 0 512-229.678 512-512 0-282.298-229.702-512-512-512zM512 844.505c-230.391 0-417.84-187.447-417.84-417.838s187.448-417.838 417.84-417.838 417.84 187.448 417.84 417.838c0 230.391-187.448 417.838-417.84 417.838zM676.782 426.667c0-90.988-73.793-164.782-164.782-164.782s-164.782 73.795-164.782 164.782 73.793 164.782 164.782 164.782 164.782-73.795 164.782-164.782z" />
<glyph unicode="&#xe804;" glyph-name="tick" d="M512-85.333c-282.322 0-512 229.7-512 512 0 282.322 229.678 512 512 512 282.298 0 512-229.678 512-512 0-282.3-229.702-512-512-512zM512 844.505c-230.391 0-417.84-187.448-417.84-417.838s187.448-417.84 417.84-417.84c230.39 0 417.838 187.448 417.838 417.84 0 230.39-187.448 417.838-417.838 417.838zM422.62 190.253l-194.207 194.091 66.575 66.621 127.631-127.563 306.391 306.393 66.575-66.575z" />
<glyph unicode="&#xe900;" glyph-name="pinned" d="M881.758 317.509l-104.875 86.63c-10.708 8.883-23.956 19.831-37.879 31.293v366.787c0 5.038-0.515 9.957-1.229 14.834h73.421c31.85 0 57.952 26.061 57.952 57.911v5.753c0 31.891-26.102 57.95-57.952 57.95h-598.395c-31.85 0-57.95-26.059-57.95-57.95v-5.753c0-31.85 26.1-57.911 57.95-57.911h73.423c-0.713-4.878-1.191-9.798-1.191-14.834v-366.787c-13.962-11.462-27.17-22.41-37.919-31.293l-104.876-86.63c-29.351-24.195-22.212-44.029 15.826-44.029h284.757c1.707 0 3.492 0 5.277 0v-297.926c0-33.478 27.409-60.887 60.885-60.887h6.031c33.476 0 60.926 27.409 60.926 60.887v297.926c1.744 0 3.569 0 5.234 0h284.797c38.001 0 45.14 19.792 15.787 44.029z" />
<glyph unicode="&#xe901;" glyph-name="createNote" horiz-adv-x="1152" d="M1148.527 754.059l-149.487 149.346-155.545-155.381h-636.29l-37.029-37.23-170.176-170.414v-532.974h791.909l37.031 36.844 133.4 133.703 36.633 36.939v391.98l36.361 34.723 113.192 112.461zM222.536 709.753h582.592l-36.452-36.187-324.691-324.002v-12.316l-313.011 281.514 91.559 90.995zM962.613 230.229l-186.033-186.459h-294.317v-0.748l-0.523 0.748h-445.378v481.28l81.174 81.037 326.454-293.842v-107.723h151.063l367.561 365.583v-339.878zM962.737 622.36l-37.029-36.926-345.97-344.55h-97.474v93.306l428.369 428.474 96.64-96.188-44.535-44.116zM1034.845 693.778l-96.841 96.368 60.894 60.894 96.841-96.875-60.894-60.388z" />
<glyph unicode="&#xe902;" glyph-name="storage" d="M353.215 426.553c0-87.697 71.098-158.783 158.785-158.783 87.694 0 158.788 71.084 158.788 158.783 0 72.45-48.536 133.513-114.852 152.574l-43.936 52.601-43.938-52.596c-66.311-19.065-114.847-80.13-114.847-152.579zM430.131 426.553c0 36.437 23.818 67.282 56.73 77.896l25.139 30.095 25.136-30.1c32.913-10.612 56.728-41.453 56.728-77.891 0-45.215-36.644-81.862-81.869-81.862-45.215 0-81.864 36.647-81.864 81.862zM0 757.515v-661.681c0-99.896 81.278-181.166 181.176-181.166h661.661c99.893 0 181.163 81.27 181.163 181.166v661.681c0 99.888-81.27 181.152-181.161 181.152h-661.663c-99.898 0-181.176-81.265-181.176-181.152zM84.849 655.47c0 14.001 8.52 26.006 20.659 31.123v70.921c0 41.709 33.946 75.646 75.674 75.646h661.656c41.723 0 75.67-33.937 75.67-75.646v-661.681c0-41.723-33.947-75.658-75.67-75.658h-661.661c-41.728 0-75.674 33.94-75.674 75.658v70.91c-12.141 5.111-20.659 17.12-20.659 31.123v109.711c0 13.998 8.518 26.006 20.659 31.128v175.93c-12.141 5.118-20.659 17.12-20.659 31.123v109.713h0.005zM152.397 757.515v-70.402c12.885-4.756 22.091-17.109 22.091-31.648v-109.713c0-14.539-9.206-26.889-22.091-31.648v-174.874c12.885-4.758 22.091-17.109 22.091-31.652v-109.711c0-14.537-9.206-26.887-22.091-31.647v-70.386c0-15.892 12.892-28.768 28.78-28.768h661.661c15.887 0 28.769 12.877 28.769 28.768v661.681c0 15.874-12.884 28.756-28.769 28.756h-661.661c-15.887 0-28.78-12.873-28.78-28.756zM303.135 426.553c0 115.362 93.517 208.869 208.865 208.869 115.352 0 208.864-93.507 208.864-208.869s-93.512-208.864-208.864-208.864c-115.348-0.005-208.865 93.501-208.865 208.864z" />
<glyph unicode="&#xe903;" glyph-name="blocked" d="M512 938.669c-282.774 0-512-229.229-512-512 0-282.772 229.229-512.003 512-512.003s512 229.231 512 512.003c0 282.764-229.228 512-512 512zM869.98 328.078h-715.959c-8.506 33.558-13.141 63.981-13.141 97.881 0 33.889 4.63 69.915 13.141 97.881h715.953c8.503-27.965 13.141-63.985 13.141-97.881 0-33.898-4.627-64.323-13.136-97.881z" />
<glyph unicode="&#xe904;" glyph-name="trash" d="M717.546 814.080l-105.609 124.587h-202.897l-101.845-124.587h-223.568v-40.96h76.8v-858.453h576.14l118.473 123.701v734.752h85.333v40.96h-222.828zM814.080 54.856l-94.879-99.229h-517.815v815.787h612.693v-716.558zM428.401 897.707h164.613l70.965-83.627h-303.974l68.396 83.627zM327.68 691.2h40.96v-653.653h-40.96v653.653zM491.52 691.2h40.96v-653.653h-40.96v653.653zM657.067 691.2h40.96v-653.653h-40.96v653.653z" />
<glyph unicode="&#xe905;" glyph-name="tick-simple" d="M350.542-0.395l-350.819 350.609 120.262 120.345 230.555-230.432 553.47 553.474 120.262-120.262z" />
<glyph unicode="&#xe906;" glyph-name="pen" d="M802.681 938.667l-140.88-141.8 221.157-221.52 141.042 140.559zM724.657 639.963l-109.638 109.763-615.020-617.958v-217.1h223.299l612.878 613.646-96.835 96.978z" />
<glyph unicode="&#xe907;" glyph-name="trophy" d="M785.539 899.385v-523.284l-91.662-93.938h-363.324l-94.932 96.387v520.835h549.917zM824.822 938.667h-628.482v-576.215l117.767-119.572h396.324l114.389 117.231v578.557h0.002zM196.338 899.386v-338.524l-117.765 118.849v219.675h117.765zM235.621 938.667h-196.33v-275.123l196.33-198.132v473.255zM945.427 899.386v-219.677l-117.767-118.849v338.526h117.767zM984.709 938.667h-196.332v-473.255l196.33 198.132v275.123h0.002zM510.601 100.834l146.886-146.884h-293.774l146.888 146.884zM547.092 243.226h-72.982v-123.331l-205.23-205.228h483.439l-205.227 205.228v123.331z" />
<glyph unicode="&#xe908;" glyph-name="trophy-fill" d="M984.709 938.667h-945.418v-275.123l157.049-158.491v-142.601l117.767-119.572h160.002v-122.986l-205.228-205.227h483.439l-205.227 205.228v122.986h163.34l114.389 117.231v142.077l159.887 161.355v275.123zM196.338 560.86l-117.765 118.849v219.677h117.765v-338.526zM945.427 679.709l-117.767-118.849v338.526h117.767v-219.677z" />
<glyph unicode="&#xe909;" glyph-name="points" d="M807.909 670.35l-22.804 79.131-52.751-15.225 22.803-79.131-79.060-22.839 15.227-52.755 79.060 22.839 22.873-79.131 52.755 15.227-22.873 79.131 79.13 22.839-15.227 52.753zM767.809 847.161c-103.721 0-192.787-61.761-233.105-150.398-50.519 26.307-107.831 41.388-168.714 41.388-202.117 0-365.99-163.837-365.99-365.991 0-202.080 163.872-365.988 365.99-365.988 190.517 0 346.921 145.681 364.218 331.679 12.368-1.823 24.805-3.074 37.601-3.074 141.462 0 256.191 114.729 256.191 256.193 0 141.5-114.731 256.191-256.191 256.191zM327.103 224.622c-121.288 0-219.593 98.36-219.593 219.593 0 121.306 98.306 219.593 219.593 219.593 78.952 0 147.968-41.781 186.673-104.329 18.459-32.561 30.684-64.584 31.937-95.823 0.57-6.398 1-12.867 1-19.444 0-121.231-98.342-219.592-219.61-219.592zM789.181 489.964c-33.667 0-64.265 11.795-88.924 30.845-14.153 31.703-32.524 61.046-54.61 87.209-1.862 9.185-2.862 18.621-2.862 28.343 0 80.882 65.548 146.396 146.396 146.396 80.845 0 146.396-65.514 146.396-146.396 0-80.811-65.551-146.396-146.396-146.396zM409.808 585.643l-69.839 21.874-36.832-117.446-117.48 36.849-21.91-69.837 117.482-36.85-36.832-117.444 69.839-21.873 36.83 117.444 117.499-36.85 21.874 69.84-117.463 36.849z" />
<glyph unicode="&#xe90a;" glyph-name="trophy-star" d="M984.701 938.667h-945.399v-275.123l157.049-158.507v-142.585l117.767-119.572h160.002v-122.986l-205.191-205.227h483.458l-205.228 205.228v122.986h163.34l114.393 117.231v142.164l159.811 161.268v275.123zM78.582 679.694v219.691h117.767v-338.533l-117.767 118.842zM657.56-46.051h-293.804l146.883 146.884 8.745-8.711 138.177-138.173zM746.327 392.104l-68.934-70.659h-330.363l-72.119 73.192v465.468h471.415v-468zM945.417 679.694l-117.767-118.842v338.533h117.767v-219.691zM428.547 548.117l-13.85-84.854 22.25-17.072 73.807 40.817h11.583l73.769-40.74 22.246 17.072-13.885 85.045 4.26 13.734 58.766 60.227-8.436 27.581-79.101 12.046-14.5 11.047-35.292 75.225h-27.505l-35.33-75.378-14.502-11.010-78.868-12.044-8.593-27.544 58.807-60.15z" />
<glyph unicode="&#xe90b;" glyph-name="print-fill" d="M699.517 746.667l-185.789 185.771-185.789-185.771h-327.938v-768h1024v768h-324.483zM201.793 152.747l136.779 419.268 171.991-229.296 66.183 61.624 148.765-251.597h-523.718zM671.273 486.753c0 41.624 33.717 75.423 75.383 75.423 41.665 0 75.464-33.799 75.464-75.423 0-41.667-33.799-75.424-75.464-75.424-41.667 0-75.383 33.758-75.383 75.424zM513.727 902.299l155.648-155.633h-311.298l155.65 155.633z" />
<glyph unicode="&#xe90c;" glyph-name="explore-outline" d="M125.413 6.965c-8.47 0-16.683 1.22-24.489 3.625-18.57 69.030 38.88 138.651 39.491 139.354l26.691 31.852-41.192-5.328c-5.364-0.701-131.253-19.569-120.969-245.786l0.666-14.759 14.78-0.701c8.083-0.37 15.908-0.555 23.434-0.555 197.804 0 214.84 123.336 215.468 128.589l5.456 45.614-32.906-32.109c-0.517-0.483-51.697-49.795-106.429-49.795zM1017.774 937.206c-12.541 0.98-24.794 1.389-37.152 1.389-385.249 0-669.594-462.435-669.594-462.435h-189.37l-82.089-126.188 145.164-44.172-31.556-82.034 151.525-151.516 82.089 31.56 43.785-145.196 125.798 82.091v189.406c0 0 492.993 303.051 461.401 707.096zM537.1 262.535l-18.273-11.264v-190l-66.517-43.431-41.204 135.917-97.041-37.292-116.707 116.716 22.736 59.044 14.597 37.992-135.914 41.492 43.431 66.905h189.979l11.098 18.104c2.739 4.439 277.601 444.402 637.548 444.402 0.297 0 0.63 0 0.925 0 0.521-360.107-440.071-635.774-444.658-638.585zM756.21 771.124c-24.527 0-49.053-9.378-67.773-28.097-37.437-37.439-37.475-98.070 0-135.545 18.683-18.7 43.209-28.041 67.736-28.041s49.053 9.358 67.772 28.076c37.439 37.439 37.439 98.106 0.036 135.508-18.717 18.739-43.244 28.099-67.77 28.099zM810.554 620.911c-14.539-14.541-33.85-22.53-54.38-22.53-20.533 0-39.842 7.991-54.345 22.492-29.964 29.983-29.964 78.778 0 108.762 14.539 14.539 33.85 22.547 54.381 22.547 20.529 0 39.842-8.008 54.38-22.547 29.964-29.966 29.964-78.74-0.036-108.725z" />
<glyph unicode="&#xe90d;" glyph-name="smiley" d="M512.012 938.667c-282.75 0-511.998-229.25-511.998-512s229.248-512 511.998-512c282.774 0 511.974 229.25 511.974 512s-229.2 512-511.974 512zM837.833 100.837c-42.332-42.337-91.614-75.569-146.476-98.777-56.776-24.016-117.115-36.193-179.345-36.193-62.225 0-122.563 12.177-179.338 36.193-54.864 23.209-104.151 56.441-146.488 98.78-42.337 42.337-75.571 91.622-98.778 146.488-24.016 56.776-36.193 117.113-36.193 179.338 0 62.223 12.177 122.563 36.193 179.34 23.207 54.864 56.441 104.151 98.778 146.488s91.624 75.571 146.488 98.778c56.776 24.016 117.113 36.193 179.338 36.193 62.23 0 122.569-12.177 179.345-36.193 54.863-23.207 104.144-56.439 146.476-98.777 42.334-42.336 75.561-91.622 98.767-146.488 24.011-56.776 36.186-117.115 36.186-179.342s-12.175-122.566-36.186-179.342c-23.206-54.864-56.433-104.151-98.767-146.488zM315.462 388.567c30.252 0 54.851 24.6 54.851 54.851 0 30.302-24.598 54.851-54.851 54.851-30.298 0-54.898-24.549-54.898-54.851 0-30.251 24.6-54.851 54.898-54.851zM716.187 388.567c30.302 0 54.9 24.6 54.9 54.851 0 30.302-24.598 54.851-54.9 54.851-30.3 0-54.799-24.549-54.799-54.851-0.002-30.251 24.499-54.851 54.799-54.851zM754.444 279.264c-13.472 4.28-27.87-3.166-32.152-16.642-13.715-43.148-40.194-73.933-80.949-94.114-34.761-17.213-78.78-25.941-130.831-25.941-50.348 0-95.261 8.984-129.881 25.981-40.924 20.091-68.485 51.739-81.918 94.063-4.277 13.476-18.666 20.941-32.145 16.657-13.476-4.277-20.934-18.668-16.657-32.143 17.821-56.151 54.209-98.051 108.157-124.537 42.196-20.717 93.484-31.22 152.443-31.22 60.001 0 111.665 10.516 153.552 31.258 53.12 26.303 89.127 68.186 107.022 124.486 4.284 13.478-3.168 27.872-16.64 32.154z" />
<glyph unicode="&#xe90e;" glyph-name="menu-arrow" d="M155.823 595.452l61.124 61.124 296.059-296.059 296.029 296.047 61.125-61.125-357.157-357.168z" />
<glyph unicode="&#xe90f;" glyph-name="tick-slim" d="M65.313 418.369l61.836 61.806 236.893-236.865 532.78 532.968 61.865-61.808-594.643-594.745z" />
<glyph unicode="&#xe910;" glyph-name="notifications-off" d="M219.102 577.3h131.864v-131.864h-131.864v131.864zM447.385 577.3h131.847v-131.864h-131.847v131.864zM675.682 577.3h131.864v-131.864h-131.864v131.864zM235.937 865.679l-185.462-184.007v-508.279h233.838v-185.487l242.135 185.487h263.004l184.072 185.511v506.775h-737.588zM942.755 372.553l-166.953-165.314h-260.727l-196.916-148.742v148.742h-233.838v460.787l165.265 163.81h693.17v-459.281z" />
<glyph unicode="&#xe911;" glyph-name="profile-on" d="M511.984 853.335c-118.602 0-214.798-96.229-214.798-214.83 0-118.635 96.192-214.83 214.798-214.83 118.652 0 214.848 96.196 214.848 214.83 0 118.602-96.192 214.83-214.848 214.83v0zM655.168 353.297h-286.365l-119.345-119.375v-233.922h525.085v233.922l-119.375 119.375z" />
<glyph unicode="&#xe912;" glyph-name="watch-on" horiz-adv-x="1365" d="M1309.188 581.052v50.014l-95.085 61.746h-433.428l-47.447-40.459h-96.463l-49.743 39.448-433.385 1.011-98.254-66.649v-44.602l-46.819-0.096v-145.605l46.813-0.446v-177.081l97.824-97.811h380.256l100.606 97.811v231.489h99.182v-232.844l96.447-96.447h381.617l97.871 97.808v176.605l47.579 0.472v145.638h-47.573zM875.948 256.979l-46.248 52.383v234.205l47.579 50.202h289.819l47.004-44.698v-238.354l-49.406-53.678-288.745-0.063zM201.192 256.969v0.010l-47.467 49.7v239.617l47.278 47.48h287.539l49.062-46.059v-239.716l-44.031-51.025h-292.379z" />
<glyph unicode="&#xe913;" glyph-name="watch-off" horiz-adv-x="1365" d="M1204.517 660.42l72.279-46.945v-64.819h47.579v-81.17l-47.579-0.472v-195.269l-78.893-78.824h-354.789l-77.469 77.463v251.831h-163.968v-250.186l-81.361-79.111h-353.702l-78.844 78.824v195.758l-46.819 0.44v81.186l46.819 0.096v59.77l75.778 51.402 412.141-0.965 49.789-39.481h119.663l47.453 40.456h411.92zM1214.098 692.811h-433.428l-47.447-40.459h-96.463l-49.743 39.445-433.385 1.014-98.254-66.649v-44.602l-46.816-0.096v-145.605l46.816-0.446v-177.081l97.824-97.808h380.256l100.606 97.808v231.492h99.182v-232.847l96.447-96.447h381.617l97.871 97.808v176.605l47.579 0.472v145.638h-47.579v50.014l-95.085 61.746zM482.136 577.579l39.273-36.868v-226.695l-35.256-40.836h-278.034l-38.199 39.98v226.447l37.803 37.975h274.413zM488.539 593.774h-287.539l-47.278-47.48v-239.617l47.467-49.7h292.379l44.034 51.025v239.709l-49.062 46.059zM1160.612 577.579l37.294-35.444v-225.083l-40.334-43.813-274.32-0.063-37.354 42.326v221.617l38.338 40.459h276.372zM1167.094 593.774h-289.819l-47.579-50.202v-234.211l46.248-52.386 288.745 0.066 49.406 53.678v238.354l-47.004 44.701z" />
<glyph unicode="&#xe914;" glyph-name="home-on" d="M513.918 848.002l-512.007-336.432 52.835-73.339h87.982v-440.719h626.801l111.21 75.418v365.363h90.382l54.791 76.469-511.993 333.24zM661.815 528.125l-4.82-9.151-88.689-169.527 7.588-9.308h85.924v-127.348h-156.235l-13.821-9.359-43.684-83.367-9.301-9.305h-92.652v92.815l4.758 9.059 88.675 169.588-7.646 9.274-85.791 0.007v127.29h156.112l13.817 9.332 43.701 83.364 9.332 9.39h92.727v-92.754z" />
<glyph unicode="&#xe915;" glyph-name="home-off" d="M510.583 814.562l468.074-304.657-26.791-37.39h-105.37v-379.846l-89.849-60.935h-586.503v440.723h-103.025l-24.798 34.417 468.262 307.688zM510.505 851.398l-512.007-336.432 52.835-73.335h87.982v-440.716h626.801l111.21 75.414v365.363h90.382l54.791 76.469-511.993 333.237zM658.401 531.531v92.751h-92.727l-9.332-9.393-43.697-83.364-13.821-9.332h-156.112v-127.287h85.787l7.646-9.271-93.433-178.647v-92.819h92.652l9.301 9.305 43.684 83.367 13.821 9.359h156.232v127.345h-85.924l-7.588 9.308 88.692 169.527z" />
<glyph unicode="&#xe916;" glyph-name="profile-off" d="M511.984 820.366c100.301 0 181.879-81.578 181.879-181.866 0-100.284-81.582-181.866-181.879-181.866-100.268 0-181.831 81.582-181.831 181.866 0 100.288 81.565 181.866 181.831 181.866zM511.984 853.335c-118.602 0-214.798-96.229-214.798-214.83 0-118.635 96.192-214.83 214.798-214.83 118.652 0 214.848 96.196 214.848 214.83 0 118.602-96.192 214.83-214.848 214.83v0zM641.515 320.331l100.059-100.059v-187.308h-459.15v187.308l100.029 100.059h259.064zM655.168 353.296h-286.365l-119.345-119.375v-233.922h525.085v233.922l-119.375 119.375z" />
<glyph unicode="&#xe917;" glyph-name="compass-off" d="M512.011 817.787c215.647 0 391.103-175.456 391.103-391.12s-175.456-391.12-391.103-391.12c-215.664 0-391.12 175.456-391.12 391.12s175.456 391.12 391.12 391.12zM512.011 853.345c-235.646 0-426.678-191.045-426.678-426.678 0-235.666 191.032-426.678 426.678-426.678 235.617 0 426.661 191.012 426.661 426.678 0 235.633-191.045 426.678-426.661 426.678v0zM742.172 657.697c-2.849 2.779-7.083 3.402-10.555 1.492l-290.146-158.475c-0.779-0.434-0.832-1.459-1.459-2.083s-1.668-0.676-2.099-1.476l-157.593-290.981c-1.873-3.472-1.251-7.743 1.545-10.519 1.701-1.705 3.976-2.607 6.271-2.607 1.459 0 2.915 0.348 4.251 1.078l290.129 158.438c0.799 0.451 0.871 1.492 1.459 2.119 0.627 0.627 1.668 0.656 2.083 1.459l157.642 291.015c1.873 3.472 1.251 7.743-1.529 10.538zM310.267 224.162l137.59 254.054 115.697-115.714-253.288-138.339z" />
<glyph unicode="&#xe918;" glyph-name="compass-on" d="M512.010 853.345c-235.646 0-426.678-191.045-426.678-426.678 0-235.666 191.032-426.678 426.678-426.678 235.616 0 426.661 191.012 426.661 426.678 0 235.633-191.045 426.678-426.661 426.678zM743.696 647.159l-157.642-291.015c-0.414-0.799-1.459-0.832-2.083-1.459-0.59-0.627-0.656-1.668-1.459-2.119l-290.129-158.438c-1.336-0.73-2.792-1.078-4.251-1.078-2.291 0-4.566 0.902-6.27 2.607-2.792 2.779-3.419 7.050-1.545 10.519l157.593 290.978c0.431 0.799 1.476 0.85 2.099 1.476s0.676 1.65 1.459 2.083l290.146 158.474c3.472 1.91 7.71 1.287 10.555-1.492 2.779-2.792 3.402-7.063 1.529-10.535zM447.857 478.215l-137.59-254.054 253.288 138.336-57.779 57.796z" />
<glyph unicode="&#xe919;" glyph-name="home-empty-off" d="M510.583 814.562l468.074-304.657-26.791-37.39h-105.37v-379.846l-89.849-60.935h-586.503v440.723h-103.025l-24.798 34.417 468.262 307.688zM510.505 851.398l-512.007-336.432 52.835-73.335h87.982v-440.716h626.801l111.21 75.414v365.363h90.382l54.791 76.469-511.993 333.237z" />
<glyph unicode="&#xe91a;" glyph-name="sendnote" d="M890.242 824.723l-100.71-100.745-71.366-71.202-32.969-33.021-289.249-288.949v-10.988l-279.419 251.017 81.374 81.111h520.199l33.085 34.133h-566.955l-184.231-185.098v-477.088h705.69l33.024 33.754 119.231 119.678 32.939 33.386v349.583l31.266 30.979 0.075-0.031 101.188 100.291-133.171 133.188zM856.747 224.386l-164.734-166.359h-261.932v-0.591l-1.021 0.591h-394.926v429.281l71.537 72.267 290.277-262.045v-96.143h134.147l294.274 293.431 32.379 32.672v-303.104zM858.027 574.089l-33.021-32.116-308.552-306.452h-86.374v81.579l381.549 382.112 86.115-85.78-39.718-39.342zM835.936 723.723l54.306 54.306 86.395-86.395-54.337-53.852-86.364 85.941z" />
<glyph unicode="&#xe91b;" glyph-name="watch-edit" d="M591.636 712.827c0 36.134-7.956 70.864-25.023 103.243v0.031c-37.547 75.609-115.364 122.597-200.182 122.597-124.542 0-225.563-101.328-225.563-225.867 0-124.573 100.758-225.932 225.3-225.932 79.21 0 156.071 42.52 193.618 110.927v-0.014c23.893 34.953 31.85 74.738 31.85 115.016zM524.387 619.66c-33.369-56.306-92.194-89.921-157.341-89.921-100.925 0-183.026 82.132-183.026 183.088 0 100.925 82.101 183.026 183.026 183.026 68.717 0 131.062-38.083 162.734-99.396 13.493-26.259 20.354-54.388 20.354-83.63 0-32.58-8.899-64.788-25.733-93.136l-0.014-0.031zM617.028 376.849c-82.425 0-149.504-67.048-149.504-149.487s67.075-149.518 149.504-149.518c82.412 0 149.456 67.075 149.456 149.518s-67.048 149.487-149.456 149.487zM617.028 108.541c-65.594 0-118.791 53.2-118.791 118.825 0 65.594 53.197 118.794 118.791 118.794s118.76-53.2 118.76-118.794c-0.003-65.625-53.169-118.825-118.76-118.825zM904.902 300.374h-58.327c-4.233 13.653-9.796 26.153-16.319 38.581l41.144 40.926 0.618 34.697-67.758 67.703-34.714-0.335-41.172-41.373c-12.428 6.523-25.228 12.042-38.881 16.309v58.020l-24.494 24.405h-95.823l-23.043-24.129v-58.3c-13.653-4.267-27.211-10.366-39.67-16.889l-42.479 41.291h-34.004l-43.54-40.96h-164.584l-126.283-127.611v-251.269h266.24v-21.152l68.168-67.594h34.004l42.479 41.663c12.459-6.554 26.016-12.305 39.67-16.572v-59.040l22.798-24.078h96.198l24.368 24.078v59.040c13.653 4.267 26.453 9.8 38.881 16.353l41.062-41.172 34.768-0.621 67.738 67.789-0.317 34.683-41.363 40.533c6.519 12.455 12.080 24.596 16.312 38.25h58.020l23.832 25.757v95.795l-23.528 25.221zM139.947 294.967l99.652 100.98h122.365l0.014-15.589 41.854-41.383c-6.554-12.428-12.117-24.948-16.384-38.601h-59.010l-24.651-24.972v-96.167l24.682-25.634h58.979c4.267-13.653 9.83-25.914 16.384-38.366l-13.517-12.834h-250.368v192.567zM897.707 192.403l-5.506-8.083h-68.222l-6.711-20.767c-3.492-11.158-8.284-22.204-14.22-33.55l-10.476-19.804 15.981-15.882 32.457-32.379 0.092-9.213-49.425-49.449-9.366 0.16-48.374 48.415-20.029-10.544c-11.131-5.874-22.388-10.663-33.765-14.217l-21.367-6.769v-68.871l-6.356-6.065h-70.789l-4.779 6.062v68.871l-22.122 6.769c-11.373 3.553-23.115 8.342-34.277 14.217l-20.19 10.544-16.063-15.78-32.939-32.655h-8.561l-50.169 49.579v8.622l48.968 48.811-10.52 19.999c-5.919 11.281-10.714 21.907-14.254 33.191l-6.745 20.705h-68.809l-6.666 7.649v70.724l6.666 6.96h68.823l6.755 21.081c3.557 11.346 8.346 22.535 14.234 33.724l10.557 19.893-15.998 15.954-32.874 32.864-0.014 7.98 50.046 49.411h8.561l48.824-47.954 19.982 10.605c11.237 5.891 23.313 10.738 34.656 14.305l22.122 6.827v68.297l5.212 5.943h69.891l6.816-6.083v-68.175l21.367-6.755c11.343-3.557 22.705-8.329 33.867-14.203l19.992-10.51 48.384 48.469 9.267 0.075 49.425-49.428-0.16-9.363-48.343-48.346 10.51-20.029c5.902-11.284 10.694-22.272 14.186-33.461l6.717-21.122h68.342l5.383-7.359v-69.891z" />
<glyph unicode="&#xe91c;" glyph-name="addToCollection" d="M510.444 233.1l123.081 126.133-17.725 57.719-165.646 25.32-30.3 23.88-74.045 158.488h-57.634l-73.957-158.662-30.3-23.552-165.26-25.528-17.94-57.699 123.116-126.010 9.124-29.402-28.948-177.848 46.544-34.403 154.651 86.972h24.269l154.47-86.678 46.715 34.905-29.164 177.841 8.95 28.525zM433.493 262.827h-85.333v-81.92h-58.027v81.92h-85.333v61.44h85.333v85.333h58.027v-85.333h85.333v-61.44zM119.395 498.347h16.265l23.504 2.734 5.932 4.093 67.584 143.227 16.531 34.266h135.52l16.544-34.434 67.652-143.643 5.908-4.294 12.82-1.724c13.537 5.239 24.34 19.903 24.34 34.946v292.567c0.003 18.804-17.254 37.489-35.98 37.489h-356.622c-18.726 0-34.062-18.685-34.062-37.489v-292.564c0-18.814 15.336-35.174 34.062-35.174zM990.952 863.574h-356.618c-18.732 0-33.587-18.685-33.587-37.489v-292.564c0-18.811 14.855-35.171 33.587-35.171h356.622c18.726 0 33.048 16.36 33.048 35.171v292.564c-0.003 18.804-14.322 37.489-33.051 37.489zM990.952 413.014h-309.787l10.94-35.71 10.673-34.802-24.992-26.047-77.039-79.387v-149.361c0-18.814 14.855-33.092 33.587-33.092h356.622c18.726 0 33.048 14.281 33.048 33.092v292.553c-0.003 18.814-14.322 32.754-33.051 32.754z" />
<glyph unicode="&#xe91d;" glyph-name="addToFaves" d="M824.832 307.774l199.168 204.111-28.682 93.392-268.042 40.98-49.033 37.301-119.818 255.113h-93.263l-119.678-255.403-49.029-37.448-267.421-40.977-29.034-93.184 199.229-203.82 14.759-47.551-46.845-287.761 75.315-57.866 250.252 138.551h39.27l249.972-138.059 75.599 57.576-47.21 288.328 14.49 46.718zM694.139 358.353h-133.168v-133.168h-97.946v133.168h-133.168v97.949h133.171v133.171h97.946v-133.171h133.168v-97.949z" />
<glyph unicode="&#xe91e;" glyph-name="burger-branded" d="M-51.675 885.167h1128.694v-204.305h-1128.694v204.305zM-51.675 533.665h1128.694v-204.308h-1128.694v204.308zM994.218 169.496h-1045.895v-204.301h937.255z" />
<glyph unicode="&#xe91f;" glyph-name="friends" d="M656.777 364.561c129.806 0 235.39 105.626 235.39 235.435s-105.585 235.431-235.39 235.431-235.387-105.622-235.387-235.431 105.581-235.435 235.387-235.435zM804 315.488h-294.468l-131.932-131.977v-268.844h558.339v268.844zM367.241 467.804c-129.806 0-235.39 105.626-235.39 235.431s105.585 235.431 235.39 235.431 235.411-105.622 235.411-235.431-105.605-235.431-235.411-235.431zM367.241 861.819c-87.436 0-158.583-71.127-158.583-158.583s71.148-158.583 158.583-158.583c87.436 0 158.583 71.127 158.583 158.583s-71.148 158.583-158.583 158.583zM464.695 94.758h-299.831v160.171l86.958 86.958h260.178l-51.2 76.848h-240.804l-131.936-131.98v-268.848h373.395c0.065 25.648 2.802 51.521 3.239 76.851z" />
<glyph unicode="&#xe920;" glyph-name="upload" d="M429.435 655.542h159.601v-361.655h-159.601v361.655zM421.518 655.542h-130.8c-20.597 0-32.742 5.056-36.62 15.216-3.763 10.028 1.378 22.275 15.608 36.512l205.050 205.053c9.731 9.731 21.069 14.307 33.968 14.149 14.152 0.003 25.744-4.509 34.678-13.426l205.861-205.864c13.919-13.919 18.975-25.916 14.949-35.877-3.854-9.961-15.854-15.196-35.88-15.76l-306.823-0.003zM845 280.204v-147.104c0-7.964-6.509-14.443-14.517-14.443h-642.525c-8.005 0-14.486 6.482-14.486 14.443v147.104h-165.752v-263.303c0-31.932 25.899-57.845 57.845-57.845h887.363c31.932 0 57.851 25.899 57.851 57.845v263.303h-165.769z" />
<glyph unicode="&#xe921;" glyph-name="facebook" d="M85.332 853.335v-853.332h853.332v853.332h-853.332zM699.189 741.978c6.197 0.13 12.65-0.070 19.323-0.521 24.515-0.032 50.122-2.244 75.521-4.479l-2.761-101.042h-68.23c-31.99 0.71-43.546-11.713-44.584-47.811v-79.374h115.572l-4.584-108.23h-110.99v-301.303h-112.76v301.303h-78.282v108.23h78.282v92.916c0 66.992 28.323 109.634 84.113 131.25 14.33 5.637 30.783 8.669 49.374 9.063z" />
<glyph unicode="&#xe922;" glyph-name="twitter" d="M924.124 689.744c-5.513-11.64-15.774-26.342-30.783-44.108s-33.54-33.385-55.594-46.865c0.613-4.9 1.072-9.496 1.378-13.784 2.379-66.022-13.435-134.523-35.379-191.59-42.529-106.104-107.698-191.496-200.779-249.479-97.064-55.675-210.11-67.517-314.261-57.432-69.146 7.942-137.295 30.521-188.834 73.052 94.262-11.267 182.232 20.799 251.777 72.593-77.255-1.956-133.386 53.93-159.887 118.536 11.946-3.129 24.445-2.752 35.838-1.839 14.022 1.316 27.335 2.633 40.431 5.513-49.261 15.892-92.363 45.11-114.862 89.133-13.196 27.894-19.155 54.458-19.297 84.537 23.083-12.155 50.846-23.996 76.267-22.971-38.39 32.522-69.167 74.086-74.891 121.755-3.612 39.747 6.333 76.031 20.674 109.807 57.429-63.112 121.861-115.053 196.183-147.025 50.828-20.814 101.51-31.945 153.915-32.161-6.049 46.805-1.345 92.076 20.674 130.484 25.917 41.292 63.727 65.252 106.132 77.189 60.676 15.557 119.856-6.418 157.13-48.7 40.198 4.342 78.703 22.175 109.348 40.431-13.021-39.434-38.378-78.642-75.35-97.403 35.202 6.519 68.792 16.941 100.16 30.324z" />
<glyph unicode="&#xe923;" glyph-name="tumblr" d="M938.668 853.335v-853.332h-853.332v853.332zM582.359 231.376c-14.5 4.042-28.798 8.635-40.141 17.59-4.51 3.61-6.766 6.915-6.766 9.923 0 72.766 0 145.53 0 218.293h138.011c0 31.871 0 63.745 0 95.616h-138.011v144.328h-79.38c-5.917-74.097-45.174-144.328-122.678-144.328v-95.616h65.85c0-78.778 0-157.556 0-236.335 0.27-37.167 17.43-69.146 47.357-86.146 28.324-14.662 58.168-18.392 87.95-18.49 29.19 0.143 60.253-0.439 87.95 1.352 24.25 0.87 47.494 6.419 68.105 16.689v101.93c-12.028-7.818-25.257-14.431-39.69-19.846-24.21-7.938-45.822-10.545-68.554-4.961z" />
<glyph unicode="&#xe924;" glyph-name="flag" d="M172.39 890.46v48.207h-136.216v-1024h136.216v434.35c339.869 96.375 534.996-156.16 815.435 40.881v548.768c-379.924-245.818-505.511 25.194-815.435-48.207z" />
<glyph unicode="&#xe925;" glyph-name="createNote-fill" d="M394.315 359.175l324.366 323.799h-547.239l-78.817-78.879 301.691-276.733v18.517zM569.866 187.966h-175.551v97.802l-323.366 296.656-70.95-70.967v-471.897h685.872l171.988 171.991v262.874l-278.61-277.139zM894.826 813.773l-82.224-82.227 129.079-128.451 82.319 81.507zM849.289 640.567l-63.989 63.645-358.956-358.332v-125.887h130.328l357.707 355.83-56.518 56.235z" />
<glyph unicode="&#xe926;" glyph-name="dots-round" d="M291.348 425.872c0-61.283-49.65-110.933-110.933-110.933s-110.933 49.65-110.933 110.933c0 61.263 49.65 110.933 110.933 110.933s110.933-49.671 110.933-110.933zM624.148 425.872c0-61.283-49.65-110.933-110.933-110.933s-110.933 49.65-110.933 110.933c0 61.263 49.65 110.933 110.933 110.933 61.286 0 110.933-49.671 110.933-110.933zM956.948 425.872c0-61.283-49.65-110.933-110.933-110.933s-110.933 49.65-110.933 110.933c0 61.263 49.65 110.933 110.933 110.933s110.933-49.671 110.933-110.933z" />
<glyph unicode="&#xe927;" glyph-name="dots-brand" d="M755.251 324.779h130.789l70.909 70.909v130.789h-130.826l-70.874-70.871v-130.826zM412.368 324.741h130.789l70.909 70.912v130.785h-130.83l-70.871-70.83v-130.867zM69.482 324.779h130.789l70.909 70.909v130.826h-130.823l-70.874-70.868v-130.867z" />
<glyph unicode="&#xe928;" glyph-name="document" d="M141.193 853.335h-37.37v-853.332h608.477l207.877 207.61v645.725h-778.985zM883.2 222.971l-186.265-185.991h-556.135v779.377h742.4v-593.386z" />
<glyph unicode="&#xe929;" glyph-name="purchase" d="M429.435 927.538h159.601v-361.655h-159.601v361.655zM602.482 576.453h130.8c20.597 0 32.742-5.056 36.62-15.216 3.763-10.028-1.378-22.275-15.608-36.512l-205.050-205.053c-9.731-9.731-21.069-14.307-33.968-14.149-14.152-0.003-25.744 4.509-34.678 13.426l-205.861 205.864c-13.919 13.919-18.975 25.916-14.949 35.877 3.854 9.961 15.854 15.196 35.88 15.76l306.823 0.003zM845 301.537v-147.104c0-7.964-6.509-14.443-14.517-14.443h-642.525c-8.005 0-14.486 6.482-14.486 14.443v147.104h-165.752v-263.303c0-31.932 25.899-57.845 57.845-57.845h887.363c31.932 0 57.851 25.899 57.851 57.845v263.303h-165.769z" />
<glyph unicode="&#xe92a;" glyph-name="folder-blank" d="M327.076 850.799l127.997-115.586h532.4v-690.014h-950.944v805.6h290.548zM341.127 887.318h-341.118v-878.636h1023.983v763.052h-554.868l-127.997 115.584z" />
</font>
</defs>
</svg>
