<?xml version="1.0" standalone="no"?>
<!DOCTYPE svg PUBLIC "-//W3C//DTD SVG 1.1//EN" "http://www.w3.org/Graphics/SVG/1.1/DTD/svg11.dtd" >
<svg xmlns="http://www.w3.org/2000/svg">
<metadata>Generated by IcoMoon</metadata>
<defs>
<font id="deviantART-symbols" horiz-adv-x="1024">
<font-face units-per-em="1024" ascent="960" descent="-64" />
<missing-glyph horiz-adv-x="1024" />
<glyph unicode="&#x20;" horiz-adv-x="512" d="" />
<glyph unicode="&#x24;" glyph-name="staff-full" d="M829.811 773.944v186.216h-186.225l-18.585-18.747-87.868-167.461-27.628-18.632h-313.61v-255.733h172.407l15.363-18.576-187.769-358.795v-186.216h186.22l18.586 18.735 87.868 167.461 27.628 18.641h313.613v255.737h-172.412l-15.342 18.697z" />
<glyph unicode="&#x2a;" glyph-name="premium" d="M768.837 314.205l60.429-347.315-316.413 163.979-316.413-163.979 60.429 347.315-255.989 245.963 353.768 50.675 158.205 315.995 158.205-315.995 353.768-50.675z" />
<glyph unicode="&#x3c;" glyph-name="leftarrow" d="M282.782 444.388l512.557 510.75v-1021.499l-256.278 255.372z" />
<glyph unicode="&#x3e;" glyph-name="rightarrow" d="M741.218 444.388l-512.557 510.75v-1021.499l256.278 255.372z" />
<glyph unicode="&#x40;" glyph-name="external-1d" d="M853.288 21.384h-682.629v682.629h253.851l-83.195 85.328h-255.987v-853.285h853.288v255.987l-85.328 86.637zM511.395 875.235l170.443-168.723-384.141-384.019 175.208-175.211 384.163 384 167.213-167.701 0.144 511.803z" />
<glyph unicode="&#x42;" glyph-name="beta" d="M512.851 736.237l101.899-203.531 224.821-32.203-162.581-156.216 38.704-222.432-202.843 105.117-202.843-105.12 38.704 222.435-162.581 156.216 224.821 32.203 101.899 203.531zM512.853 926.837l-158.208-315.997-353.765-50.672 255.987-245.965-60.427-347.312 316.413 163.979 316.413-163.979-60.429 347.312 255.989 245.965-353.765 50.672-158.208 315.997z" />
<glyph unicode="&#x43;" glyph-name="beta2" horiz-adv-x="1792" d="M306.141 424.579h-70.529v-76.125h70.529c29.369 0 45.688 14.892 45.688 37.736 0 24.149-16.317 38.39-45.688 38.39zM342.689 540.549c0 24.804-16.317 36.273-46.996 36.273h-60.087v-73.199h60.087c30.678 0 46.996 12.123 46.996 36.925zM1311.966 424.579h82.237l-41.12 112.916zM33.481 763.196c-11.266 0-20.387-9.149-20.387-20.429v-568.584c0-11.288 9.119-21.896 20.387-21.896h1522.628l44.431 30.025 169.265 315.788v265.836l-1736.326-0.735zM319.841 260.617h-183.781v401.116h171.384c83.549 0 133.806-36.87 133.806-108.664 0-43.080-24.151-74.243-53.522-84.687 37.857-12.398 65.27-50.033 65.27-95.074-0.002-72.448-49.609-112.696-133.156-112.696zM786.044 570.969h-184.455v-61.484h169.814v-87.838h-169.814v-70.268h184.455v-90.764h-286.926v401.116h286.926v-90.764zM1049.554 260.617h-105.403v310.353h-122.969v90.764h351.345v-90.764h-122.969v-310.353zM1454.257 260.617l-28.717 79.050h-145.551l-28.064-79.050h-103.782l152.735 401.116h107.045l152.735-401.116h-106.392z" />
<glyph unicode="&#x46;" glyph-name="uni46" d="M991.238 558.067c-2.957 9.085-10.827 15.708-20.308 17.087l-301.537 43.74-134.836 272.59c-4.236 8.571-12.981 13.993-22.558 13.993s-18.322-5.422-22.558-13.993l-134.853-272.59-301.524-43.74c-9.476-1.379-17.348-8.002-20.307-17.087-2.959-9.089-0.492-19.062 6.37-25.727l218.182-212.196-51.494-299.598c-1.618-9.413 2.263-18.934 10.010-24.549 4.384-3.176 9.576-4.793 14.79-4.793 4.004 0 8.024 0.952 11.705 2.883l269.681 141.458 269.699-141.458c3.681-1.93 7.701-2.883 11.707-2.883 5.213 0 10.406 1.618 14.791 4.793 7.748 5.615 11.631 15.137 10.007 24.552l-51.515 299.601 218.183 212.189c6.86 6.666 9.327 16.639 6.367 25.727z" />
<glyph unicode="&#x47;" glyph-name="core" horiz-adv-x="1792" d="M1094.356 585.61h-74.607v-111.258h74.607c40.859 0 61.928 22.752 61.928 55.31 0.002 33.201-21.069 55.949-61.928 55.949zM26.764 762.821c-11.080 0-20.054-8.997-20.054-20.095v-559.277c0-11.096 8.974-19.456 20.054-19.456h1526.462l43.704 28.486 166.495 309.582v261.477l-1736.662-0.725zM312.899 328.698c45.33 0 69.593 25.611 83 60.743h81.086c-14.688-79.050-71.509-133.627-164.083-133.627-104.708 0-182.598 82.173-182.598 202.203s77.893 202.203 182.598 202.203c92.575 0 149.401-54.121 164.083-133.174h-81.086c-13.405 35.135-37.669 60.391-83 60.391-62.567 0-99.599-54.673-99.599-129.376 0-74.057 37.029-129.372 99.599-129.372zM708.202 263.143c-108.59 0-196.618 88.032-196.618 196.618 0 108.591 88.031 196.628 196.618 196.628 108.591 0 196.628-88.031 196.628-196.628 0-108.586-88.031-196.618-196.628-196.618zM1158.844 263.545l-97.047 143.468h-42.047v-143.468h-81.981v389.405h161.701c82.36 0 137.268-43.417 137.268-123.866 0-62.567-34.477-101.164-89.382-114.571l103.426-150.964h-91.939zM1564.33 582.681h-187.383v-84.907h169.814v-70.268h-169.814v-93.691h187.383v-70.268h-266.437v389.405h266.437v-70.268zM718.037 603.437c-1.297 2.63-3.97 4.293-6.902 4.293s-5.605-1.661-6.901-4.293l-41.258-83.59-92.254-13.413c-2.901-0.419-5.31-2.45-6.217-5.237s-0.148-5.846 1.951-7.886l66.751-65.071-15.755-91.866c-0.493-2.891 0.692-5.807 3.060-7.537 1.345-0.963 2.933-1.464 4.53-1.464 1.228 0 2.45 0.289 3.587 0.888l82.504 43.373 82.519-43.373c1.126-0.596 2.357-0.888 3.587-0.888 1.592 0 3.182 0.503 4.527 1.464 2.372 1.729 3.559 4.645 3.066 7.537l-15.759 91.866 66.751 65.071c2.103 2.043 2.856 5.108 1.951 7.886s-3.308 4.823-6.218 5.237l-92.256 13.413-41.258 83.59z" />
<glyph unicode="&#x48;" glyph-name="hell-beta" d="M504.824 650.397c45.541-60.912 81.443-121.888 106.864-181.539 33.669-79.008 48.773-155.664 44.893-227.843-3.283-61.027-30.024-102.544-62.128-130.595-2.576 5.664-4.856 11.517-6.853 17.568-7.163 21.704-10.485 45.84-9.869 71.744 1.093 46.139 14.349 82.331 15.552 85.528 13.2 31.624 4.48 67.685-21.373 90.208-14.707 12.811-33.203 19.291-51.848 19.291-14.224 0-28.533-3.768-41.323-11.371-1.608-0.957-39.901-23.832-83.872-59.757-62.429-51.003-106.077-103.035-129.736-154.651-15.387-33.571-24.896-65.536-30.656-93.891-3.928 1.661-7.789 3.387-11.595 5.179-27.717 13.072-51.424 29.363-70.469 48.419-38.312 38.341-56.208 86.219-53.189 142.301 0.024 0.429 0.043 0.856 0.059 1.283 1.76 46.76 9.677 93.547 23.525 139.059 5.568 18.296 12.101 36.421 19.544 54.261 2.117-2.675 4.301-5.275 6.555-7.797 31.232-34.971 73.557-53.453 122.403-53.453 28.939 0 60.459 6.699 93.688 19.909 1.8 0.715 3.573 1.496 5.317 2.341 57.837 28.037 99.195 75.147 119.597 136.235 8.899 26.656 13.872 55.888 14.915 87.571zM354.968 922.579c0 0 170.717-332.2-19.384-424.352-25.048-9.96-46.285-14.277-64.28-14.277-117.539 0-96.643 184.299-96.643 184.299s-145.888-152.541-154.933-392.984c-8.864-164.771 116.773-275.245 287.235-302.717 0 0-10.173 74.443 30.539 163.259 44.728 97.589 181.92 179.147 181.92 179.147s-74.331-183.080 54.269-311.555c93.035 43.296 156.448 122.925 162.387 233.336 19.901 370.173-381.109 685.845-381.109 685.845v0z" />
<glyph unicode="&#x5e;" glyph-name="volunteer" d="M723.965 829.645c-89.464 0-167.92-46.667-211.995-117.387-44.072 70.717-122.531 117.387-211.992 117.387-137.869 0-249.632-111.765-249.632-249.632 0-288.805 309.032-366.355 461.624-516.16 153.621 152.083 461.624 225.821 461.624 516.16 0.003 137.867-111.76 249.632-249.629 249.632z" />
<glyph unicode="&#x60;" glyph-name="senior" d="M752.8 823.024c37.701 0 68.259 30.789 68.259 68.491s-30.563 68.485-68.259 68.485h-682.616c-37.699 0-68.259-30.789-68.259-68.491s30.56-68.485 68.259-68.485h0.512l88.147-233.725c21.131 19.232 44.203 35.664 68.965 49.536l-57.12 184.189h92.469l29.699-155.261c26.171 8.715 53.123 14.299 80.632 17.043l-8.229 138.219h92.469l-8.237-138.072c27.504-2.768 54.451-8.731 80.613-17.467l29.725 155.539h92.467l-57.173-184.171c24.749-13.899 47.808-30.712 68.923-49.971l88.24 234.141h0.515zM411.32 618.96c-169.648 0-307.173-137.528-307.173-307.173s137.525-307.173 307.173-307.173c169.645 0 307.173 137.531 307.173 307.173 0.003 169.645-137.525 307.173-307.173 307.173zM528.339 274.421l27.624-158.768-144.643 74.957-144.643-74.957 27.624 158.768-117.019 112.437 161.715 23.163 72.323 144.451 72.323-144.451 161.715-23.163-117.019-112.437z" />
<glyph unicode="&#x66;" glyph-name="friends" d="M659.959 107.878c-1.34 0-2.674 0.007-4.016 0.007-23.095 0.003-57.614 0.007 4.016-0.007zM1021.135 166.232c-4.616 37.975-21.702 68.647-56.851 84.989-40.845 19.013-82.4 36.458-123.926 53.887-87.772 36.853-121.158 47.542-67.379 170.069 27.145 61.848 35.633 126.216 27.894 192.607-9.135 78.299-60.988 121.249-141.603 120.289-79.868-0.935-130.534-45.922-137.596-125.181-5.724-64.241 1.072-126.546 27.529-186.885 30.988-70.695 34.898-106.577 1.162-135.128v0c-5.913-5.012-13.007-9.794-21.295-14.497-0.287-0.166-0.572-0.326-0.862-0.49-2.667-1.498-5.447-2.992-8.364-4.48-0.049-0.026-0.092-0.048-0.142-0.073-3.072-1.563-6.282-3.125-9.632-4.688-0.157-0.075-0.319-0.147-0.473-0.217-2.949-1.372-6.029-2.748-9.195-4.123-0.872-0.382-1.761-0.763-2.647-1.143-2.621-1.121-5.323-2.251-8.089-3.384-0.976-0.403-1.934-0.802-2.93-1.203-3.654-1.476-7.396-2.961-11.301-4.468-38.686-13.944-76.579-29.937-113.683-47.955-2.017-1.063-4.005-2.172-5.966-3.311-0.597-0.343-1.172-0.708-1.759-1.058-1.367-0.819-2.729-1.642-4.060-2.493-0.654-0.422-1.29-0.858-1.935-1.287-1.248-0.826-2.485-1.662-3.698-2.526-0.64-0.456-1.265-0.923-1.893-1.387-1.198-0.886-2.379-1.782-3.534-2.698-0.592-0.469-1.174-0.951-1.754-1.428-1.174-0.966-2.323-1.956-3.452-2.964-0.519-0.464-1.036-0.93-1.544-1.403-1.178-1.090-2.321-2.21-3.442-3.353-0.416-0.423-0.84-0.84-1.249-1.268-1.227-1.29-2.408-2.62-3.56-3.973-0.265-0.311-0.543-0.609-0.804-0.927-10.68-12.857-17.89-28.442-19.571-47.434-5.62-63.549 5.546-70.101 56.646-69.234 98.573 1.64 197.183 0.522 295.77 0.473 12.356 0 21.448-0.007 10.789-0.007 50.658 0 101.299-0.027 151.953 0 50.939 0 101.903-0.676 152.827 0.236 45.463 0.84 55.139 12.56 49.62 58.117zM342.359 293.843l0.647 0.316c38.207 18.556 77.716 35.224 117.434 49.564 17.195 6.645 31.198 12.798 42.070 18.453-17.079 7.355-34.225 14.555-51.364 21.75-73.442 30.839-101.386 39.784-56.382 142.315 22.72 51.754 29.817 105.618 23.343 161.174-7.642 65.519-51.037 101.463-118.489 100.659-66.841-0.785-109.233-38.427-115.142-104.751-4.79-53.755 0.894-105.893 23.034-156.387 38.284-87.327 27.281-111.193-61.725-145.518-32.372-11.668-64.082-25.049-95.128-40.123-25.465-13.436-45.963-33.7-48.723-64.867-4.705-53.182 4.64-58.66 47.398-57.936 73.357 1.218 146.736 0.64 220.105 0.462 10.584 25.749 31.698 53.146 72.282 74.552l0.64 0.338z" />
<glyph unicode="&#x67;" glyph-name="groups" d="M511.973 839.115l-426.64-284.427v-497.744h284.427v355.531h284.424v-355.531h284.427v497.744z" />
<glyph unicode="&#x68;" glyph-name="hell" d="M354.968 922.579c0 0 170.717-332.2-19.384-424.352-188.704-75.019-160.923 170.021-160.923 170.021s-145.888-152.541-154.933-392.984c-8.864-164.771 116.773-275.245 287.235-302.717 0 0-10.173 74.443 30.539 163.259 44.728 97.589 181.92 179.147 181.92 179.147s-74.331-183.080 54.269-311.555c93.035 43.296 156.448 122.925 162.387 233.336 19.901 370.173-381.109 685.845-381.109 685.845z" />
<glyph unicode="&#x6d;" glyph-name="uni6D" d="M31.522 639.575v-467.161c0-4.579 0.449-9.039 1.126-13.416l219.36 226.877-220.486 253.699zM425.276 350.306h173.459c19.474 0 50.905 14.983 64.682 30.83l323.782 372.593c-11.612 32.034-41.388 54.877-76.394 54.877h-797.621c-35.006 0-64.78-22.845-76.398-54.879l323.806-372.591c13.777-15.848 45.208-30.83 64.682-30.83zM715.613 320.994c-27.599-31.77-77.854-55.727-116.879-55.727h-173.458c-39.032 0-89.283 23.958-116.886 55.727l-10.059 11.57-225.698-233.445c11.962-7.1 25.779-11.225 40.552-11.225h797.619c14.779 0 28.595 4.126 40.554 11.225l-225.702 233.432-10.044-11.557zM771.99 385.861l219.35-226.866c0.68 4.38 1.129 8.841 1.129 13.419v467.156l-220.48-253.713z" />
<glyph unicode="&#x6f;" glyph-name="all" d="M0 960h426.643v-426.643h-426.643v426.643zM597.3 960h426.643v-426.643h-426.643v426.643zM0 362.7h426.643v-426.643h-426.643v426.643zM597.3 362.7h426.643v-426.643h-426.643v426.643z" />
<glyph unicode="&#x76;" glyph-name="downarrow" d="M514.040 318.564l-288.416 289.436h576.831l-144.206-144.719z" />
<glyph unicode="&#x192;" glyph-name="core-small" d="M511.988 959.993c-282.759 0-511.988-229.222-511.988-512 0-282.771 229.229-511.986 511.988-511.986 282.783 0 512.012 229.217 512.012 511.986 0 282.778-229.229 512-512.012 512zM722.541 365.894l41.032-239.225c1.289-7.516-1.809-15.118-7.977-19.611-3.499-2.524-7.641-3.837-11.779-3.837-3.193 0-6.412 0.777-9.327 2.307l-214.876 112.959-214.852-112.959c-2.951-1.529-6.12-2.307-9.325-2.307-4.154 0-8.282 1.312-11.779 3.837-6.156 4.494-9.254 12.095-7.967 19.611l41.008 239.225-173.807 169.441c-5.465 5.318-7.431 13.29-5.088 20.54 2.355 7.25 8.634 12.546 16.198 13.636l240.208 34.932 107.431 217.656c3.376 6.849 10.346 11.184 17.971 11.184 7.639 0 14.597-4.335 17.985-11.184l107.419-217.656 240.22-34.932c7.554-1.092 13.819-6.386 16.186-13.636 2.355-7.25 0.389-15.222-5.088-20.54l-173.793-169.441z" />
<glyph unicode="&#x222b;" glyph-name="beta-small" d="M511.966-64c-282.3 0-511.966 229.676-511.966 511.988 0 282.324 229.666 512.012 511.966 512.012 282.336 0 512.034-229.688 512.034-512.012 0-282.312-229.699-511.988-512.034-511.988zM511.966 889.737c-243.555 0-441.702-198.168-441.702-441.748 0-243.57 198.149-441.725 441.704-441.725 243.593 0 441.771 198.154 441.771 441.725-0.002 243.581-198.178 441.748-441.772 441.748zM846.971 542.106c-2.058 6.233-7.431 10.784-13.93 11.711l-206.28 30.008-92.22 186.897c-2.883 5.89-8.875 9.597-15.439 9.597-6.566 0-12.556-3.707-15.44-9.597l-92.266-186.897-206.257-30.008c-6.494-0.927-11.894-5.478-13.928-11.711-1.99-6.223-0.297-13.059 4.369-17.635l149.262-145.487-35.222-205.438c-1.099-6.448 1.555-12.989 6.863-16.833 2.997-2.195 6.564-3.296 10.109-3.296 2.744 0 5.49 0.643 8.006 1.968l184.508 96.998 184.506-96.998c2.516-1.324 5.26-1.968 8.006-1.968 3.543 0 7.113 1.101 10.11 3.296 5.33 3.843 7.96 10.385 6.861 16.833l-35.222 205.438 149.238 145.487c4.688 4.576 6.38 11.414 4.367 17.635z" />
<glyph unicode="&#xe600;" glyph-name="mag" d="M384.889 918.189c188.503 0 341.315-152.812 341.315-341.315 0-62.193-16.642-120.494-45.705-170.712l269.456-269.458c16.593-16.593 16.593-43.745 0-60.336l-65.278-65.28c-16.593-16.593-43.745-16.593-60.336 0l-269.645 269.644c-50.011-28.737-107.989-45.173-169.806-45.173-188.503 0-341.315 152.812-341.315 341.315s152.812 341.315 341.315 341.315zM223.991 415.977c42.978-42.978 100.12-66.647 160.897-66.647 60.78 0 117.919 23.668 160.897 66.647s66.647 100.118 66.647 160.897-23.668 117.919-66.647 160.897-100.118 66.647-160.897 66.647c-60.778 0-117.921-23.668-160.897-66.647s-66.645-100.118-66.645-160.897 23.667-117.919 66.645-160.897z" />
<glyph unicode="&#xe601;" glyph-name="dAlogo" d="M86.781 537.913c-5.91 0-9.985-4.884-9.985-11.048v-42.388c-10.239 2.056-24.911 3.85-35.957 3.85-29.286 0-40.838-15.926-40.838-40.845v-51.119c0-25.179 11.692-38.278 36.359-38.278 16.438 0 31.014 5.652 41.296 13.869 0.768-9.502 3.896-13.869 10.064-13.869 5.908 0 9.555 4.872 9.555 11.045v157.737c0.002 6.162-4.324 11.047-10.492 11.047zM76.796 391.989c-10.239-8.221-23.923-14.898-36.248-14.898-15.161 0-20.069 6.427-20.069 19.272v51.119c0 15.161 6.707 21.837 21.092 21.837 8.738 0 21.573-1.539 35.225-3.857v-73.473zM317.015 488.327c-5.389 1.546-10.784-1.794-12.586-7.19l-32.879-96.078-32.882 96.078c-1.799 5.396-7.197 8.736-12.591 7.19-5.394-1.543-8.475-7.19-6.934-12.586l38.019-108.41c2.568-7.447 8.992-9.246 14.388-9.246 5.394 0 11.82 1.799 14.385 9.246l38.021 108.41c1.799 5.396-1.541 11.043-6.941 12.586zM890.16 398.59c12.589 5.137 17.736 15.501 17.736 31.164v20.556c0 23.377-10.286 36.969-40.599 36.969h-56.778c-5.91 0-11.844-6.396-11.844-12.304v-113.982h39.251v34.131h14.214l20.030-34.131h41.115l-23.126 37.598zM855.478 429.256h-17.55v23.892h17.55c11.303 0 14.9-3.084 14.9-11.562 0.002-8.734-2.829-12.33-14.9-12.33zM763.766 475.907c-1.544 5.647-4.884 11.373-10.789 11.373h-51.636l-33.659-126.286h38.54l4.109 18.772h39.304l3.852-18.772h38.534l-28.256 114.914zM719.070 413.897l9.756 38.154 2.055 9.63h0.519l2.055-9.63 8.482-38.154h-22.866zM685.158 485.76h-38.026v23.89c0 5.912-4.884 10.789-10.789 10.789s-10.792-4.877-10.792-10.789v-23.89h-16.955c-4.879 0-8.994-4.111-8.994-8.987 0-4.884 4.115-8.995 8.994-8.995h16.955v-98.904c0-5.917 4.884-10.789 10.792-10.789 5.905 0 10.789 4.872 10.789 10.789v98.904h32.113l5.913 17.982zM924.582 485.76c-5.91 0-10.789-4.877-10.789-10.786v-23.382h34.065v-90.942h38.536v90.942h32.734l4.872 34.167h-99.418zM347.842 488.327c-5.901 0-10.787-4.876-10.787-10.789v-108.664c0-5.917 4.884-10.789 10.787-10.789 5.913 0 10.792 4.872 10.792 10.789v108.664c0 5.913-4.879 10.789-10.792 10.789zM209.908 415.603v25.46c0 25.942-8.91 47.264-45.898 47.264-37.251 0-47.963-20.808-47.963-46.753v-37.509c0-28.263 12.371-45.98 49.368-45.98 14.383 0 26.602 2.053 38.167 5.903 4.623 1.543 7.391 6.424 6.625 11.308-0.776 4.625-5.168 7.198-10.053 6.166-11.815-2.828-22.692-4.884-33.486-4.884-24.409 0-30.143 7.97-30.143 27.742v11.284h73.384zM136.526 443.12c0 17.467 6.794 27.227 27.097 27.227 20.291 0 25.807-9.76 25.807-27.227v-8.744h-52.904v8.744zM418.291 488.327c-29.283 0-39.432-15.926-39.432-40.847v-51.119c0-25.179 11.98-38.278 36.645-38.278 16.438 0 31.167 5.652 41.441 13.869 0.768-9.502 2.833-13.869 9-13.869 5.91 0 8.482 4.872 8.482 11.045v112.521c-6.826 2.055-45.083 6.678-56.136 6.678zM453.948 391.989c-6.826-8.221-23.066-14.898-35.396-14.898-15.159 0-19.214 6.427-19.214 19.272v51.119c0 15.161 5.854 21.837 20.242 21.837 8.734 0 24.129-1.539 34.369-3.857v-73.473zM553.368 488.327c-11.048 0-47.272-4.623-57.293-6.678v-112.775c0-5.917 4.884-10.789 10.792-10.789 5.906 0 10.787 4.872 10.787 10.789v96.589c11.559 2.316 25.691 3.857 34.423 3.857 14.388 0 19.527-6.676 19.527-21.837v-78.608c0-5.917 4.879-10.789 10.792-10.789 5.905 0 10.784 4.872 10.784 10.789v78.608c0.002 24.919-10.528 40.845-39.813 40.845z" />
<glyph unicode="&#xe602;" glyph-name="storage" d="M367.912 449.095c0-83.838 67.969-151.795 151.795-151.795 83.834 0 151.801 67.957 151.801 151.795 0 69.26-46.404 127.637-109.797 145.862l-42.005 50.287-42.005-50.284c-63.39-18.23-109.791-76.602-109.791-145.865zM441.447 449.095c0 34.835 22.771 64.318 54.236 74.468l24.033 28.769 24.033-28.775c31.465-10.148 54.236-39.633 54.236-74.462 0-43.225-35.035-78.259-78.271-78.259-43.225 0-78.259 35.035-78.259 78.259zM30.246 765.489v-632.559c0-95.497 77.702-173.193 173.201-173.193h632.536c95.497 0 173.193 77.693 173.193 173.193v632.559c0 95.489-77.693 173.181-173.193 173.181h-632.536c-95.503 0-173.201-77.688-173.201-173.181zM111.359 667.937c0 13.382 8.141 24.862 19.75 29.755v67.795c0 39.874 32.452 72.318 72.345 72.318h632.536c39.885 0 72.333-32.443 72.333-72.318v-632.559c0-39.885-32.448-72.327-72.333-72.327h-632.543c-39.891 0-72.345 32.448-72.345 72.327v67.789c-11.605 4.885-19.75 16.363-19.75 29.755v104.881c0 13.382 8.141 24.862 19.75 29.755v168.189c-11.605 4.891-19.75 16.363-19.75 29.755v104.881zM175.937 765.489v-67.299c12.317-4.545 21.117-16.353 21.117-30.254v-104.881c0-13.9-8.799-25.708-21.117-30.254v-167.18c12.317-4.545 21.117-16.353 21.117-30.254v-104.881c0-13.9-8.799-25.708-21.117-30.254v-67.293c0-15.189 12.323-27.502 27.513-27.502h632.536c15.189 0 27.502 12.313 27.502 27.502v632.559c0 15.176-12.313 27.491-27.502 27.491h-632.536c-15.189 0-27.513-12.31-27.513-27.491zM320.039 449.095c0 110.287 89.401 199.678 199.671 199.678 110.274 0 199.671-89.39 199.671-199.678s-89.397-199.671-199.671-199.671c-110.269-0.003-199.671 89.385-199.671 199.671z" />
<glyph unicode="&#xe603;" glyph-name="star" d="M1011.134 565.568c-3.033 9.33-11.098 16.137-20.815 17.55l-309.064 44.934-138.202 280.022c-4.343 8.808-13.306 14.379-23.121 14.379s-18.78-5.57-23.121-14.379l-138.216-280.022-309.050-44.934c-9.71-1.411-17.783-8.221-20.815-17.55-3.033-9.339-0.507-19.582 6.528-26.43l223.626-217.986-52.786-307.771c-1.656-9.67 2.322-19.449 10.259-25.217 4.492-3.266 9.816-4.925 15.159-4.925 4.103 0 8.224 0.975 11.996 2.958l276.409 145.32 276.436-145.32c3.778-1.985 7.887-2.958 11.996-2.958 5.344 0 10.667 1.661 15.159 4.925 7.946 5.766 11.925 15.551 10.259 25.226l-52.801 307.775 223.626 217.98c7.039 6.843 9.572 17.086 6.541 26.427z" />
<glyph unicode="&#xe604;" glyph-name="star-half" d="M1005.473 565.474c-3.033 9.33-11.098 16.137-20.815 17.55l-309.064 44.934-138.202 280.022c-4.343 8.808-13.306 14.379-23.121 14.379v0c0 0 0 0 0 0-9.816 0-18.78-5.57-23.121-14.379l-138.216-280.022-309.050-44.934c-6.071-0.883-11.502-3.873-15.457-8.274-2.372-2.635-4.219-5.779-5.356-9.284-0.759-2.334-1.17-4.725-1.247-7.11s0.171-4.751 0.737-7.044c1.129-4.583 3.522-8.861 7.039-12.279l223.626-217.986-52.78-307.765c-1.448-8.466 1.411-17.007 7.474-22.878 0.865-0.836 1.795-1.622 2.793-2.343 3.369-2.449 7.204-3.992 11.164-4.616 1.319-0.207 2.655-0.311 3.992-0.311 4.103 0 8.224 0.975 11.996 2.958l276.409 145.32 276.436-145.32c3.778-1.985 7.887-2.958 11.996-2.958 5.344 0 10.667 1.661 15.159 4.925 7.946 5.766 11.925 15.551 10.259 25.226l-52.801 307.775 223.626 217.98c7.029 6.843 9.562 17.091 6.528 26.427zM717.722 380.157l-31.068-30.282 40.701-237.243-213.081 112.019v543.742l106.519-215.84 238.242-34.637-141.316-137.753z" />
<glyph unicode="&#xe605;" glyph-name="star-zero" d="M517.018 767.562l107.079-216.973 239.488-34.817-173.288-168.908 40.915-238.482-214.193 112.603-214.177-112.597 40.899 238.483-173.284 168.914 239.471 34.817 107.092 216.961zM517.018 922.338c-9.867 0-18.879-5.598-23.242-14.454l-138.938-281.483-310.662-45.171c-9.76-1.42-17.876-8.264-20.924-17.641-3.047-9.389-0.508-19.685 6.563-26.568l224.796-219.123-53.056-309.381c-1.665-9.72 2.331-19.549 10.311-25.349 4.513-3.283 9.867-4.951 15.237-4.951 4.126 0 8.267 0.981 12.058 2.976l277.852 146.076 277.876-146.076c3.788-1.995 7.931-2.976 12.058-2.976 5.37 0 10.721 1.669 15.237 4.951 7.985 5.794 11.988 15.63 10.311 25.357l-53.078 309.381 224.796 219.118c7.065 6.884 9.611 17.18 6.563 26.568-3.047 9.379-11.156 16.221-20.924 17.641l-310.678 45.171-138.922 281.483c-4.354 8.856-13.368 14.454-23.235 14.454v0z" />
<glyph unicode="&#xe606;" glyph-name="notallowed" d="M519.709 938.67c-269.152 0-487.332-218.188-487.332-487.332 0-269.152 218.188-487.336 487.332-487.336 269.152 0 487.336 218.188 487.336 487.336 0 269.141-218.188 487.332-487.336 487.332zM860.444 357.496h-681.463c-8.096 31.943-12.511 60.903-12.511 93.162 0 32.255 4.405 66.549 12.511 93.162h681.458c8.096-26.621 12.511-60.903 12.511-93.162s-4.405-61.22-12.507-93.162z" />
<glyph unicode="&#xe607;" glyph-name="comment" d="M921.56 914.522h-808.669c-41.016 0-74.266-33.251-74.266-74.266v-594.121c0-41.016 33.251-74.266 74.266-74.266h469.070l0.010-195.381c-0.014-15.522 3.868-25.017 11.4-28.427 7.641-3.414 17.014 0.427 28.266 11.68l212.114 212.127h87.798c41.016 0 74.266 33.251 74.266 74.266v594.121c0.003 41.016-33.251 74.266-74.266 74.266z" />
<glyph unicode="&#xe608;" glyph-name="faves" d="M988.81 557.451c-2.936 9.030-10.739 15.617-20.142 16.985l-299.097 43.483-133.743 270.991c-4.203 8.524-12.876 13.915-22.375 13.915s-18.17-5.39-22.375-13.915l-133.757-270.991-299.079-43.483c-9.401-1.366-17.209-7.957-20.142-16.985-2.936-9.038-0.488-18.95 6.316-25.579l216.412-210.954-51.076-297.846c-1.6-9.361 2.245-18.821 9.927-24.407 4.349-3.161 9.498-4.766 14.668-4.766 3.971 0 7.96 0.945 11.609 2.863l267.491 140.629 267.518-140.629c3.654-1.922 7.636-2.863 11.609-2.863 5.171 0 10.319 1.606 14.668 4.766 7.683 5.581 11.539 15.048 9.927 24.412l-51.099 297.846 216.412 210.951c6.812 6.629 9.258 16.544 6.322 25.579z" />
<glyph unicode="&#xe609;" glyph-name="core-bkgrd" d="M511.988 959.993c-282.759 0-511.988-229.222-511.988-512 0-282.771 229.229-511.986 511.988-511.986 282.783 0 512.012 229.217 512.012 511.986 0 282.778-229.229 512-512.012 512z" />
<glyph unicode="&#xe60a;" glyph-name="core-bkgrd-lrg" horiz-adv-x="1792" d="M33.122 762.821c-11.080 0-20.054-8.997-20.054-20.095v-559.277c0-11.096 8.974-19.456 20.054-19.456h1526.462l43.704 28.486 166.495 309.582v261.477l-1736.662-0.725z" />
</font>
</defs>
</svg>
